<svg width="23" height="23" viewBox="0 0 23 23" fill="none" xmlns="http://www.w3.org/2000/svg">
<path d="M2.85378 17.682L3.8116 17.9693C3.90028 17.6737 3.84751 17.3537 3.66861 17.1023L2.85378 17.682ZM1.83671 21.0722L0.878879 20.7848C0.776494 21.1261 0.863438 21.4961 1.10711 21.7561C1.35079 22.016 1.71438 22.1267 2.06156 22.0466L1.83671 21.0722ZM5.48222 20.2309L6.03657 19.3986C5.80746 19.246 5.52559 19.1946 5.25736 19.2565L5.48222 20.2309ZM20.0832 11.8674C20.0832 16.8609 16.0352 20.909 11.0416 20.909V22.909C17.1397 22.909 22.0832 17.9655 22.0832 11.8674H20.0832ZM11.0416 2.82576C16.0352 2.82576 20.0832 6.87383 20.0832 11.8674H22.0832C22.0832 5.76926 17.1397 0.825764 11.0416 0.825764V2.82576ZM2 11.8674C2 6.87383 6.04807 2.82576 11.0416 2.82576V0.825764C4.9435 0.825764 0 5.76926 0 11.8674H2ZM3.66861 17.1023C2.61776 15.6252 2 13.8199 2 11.8674H0C0 14.249 0.755145 16.4571 2.03894 18.2617L3.66861 17.1023ZM2.79453 21.3595L3.8116 17.9693L1.89595 17.3946L0.878879 20.7848L2.79453 21.3595ZM5.25736 19.2565L1.61185 20.0978L2.06156 22.0466L5.70708 21.2053L5.25736 19.2565ZM11.0416 20.909C9.18897 20.909 7.46925 20.3529 6.03657 19.3986L4.92788 21.0632C6.67875 22.2294 8.78233 22.909 11.0416 22.909V20.909Z" fill="#AAAFBB"/>
<circle cx="16.5187" cy="4.56437" r="4.56437" fill="#57B6B2"/>
</svg>
