<svg width="32" height="40" viewBox="0 0 32 40" fill="none" xmlns="http://www.w3.org/2000/svg">
<path d="M24 0H4C1.79077 0 0 1.79089 0 4V36C0 38.2091 1.79077 40 4 40H28C30.2092 40 32 38.2091 32 36V8L24 0Z" fill="#EEEEEE"/>
<path d="M32 8L24 0V4C24 6.20914 25.7909 8 28 8H32Z" fill="#D9D9D9"/>
<path fill-rule="evenodd" clip-rule="evenodd" d="M0 32H24C26.2091 32 28 30.2091 28 28V20C28 17.7909 26.2091 16 24 16H0V32Z" fill="#B98900"/>
<path d="M3.09728 28V19.624H6.86528C7.24928 19.624 7.59328 19.688 7.89728 19.816C8.20928 19.936 8.47328 20.112 8.68928 20.344C8.90528 20.568 9.06928 20.84 9.18128 21.16C9.29328 21.48 9.34928 21.832 9.34928 22.216C9.34928 22.608 9.29328 22.964 9.18128 23.284C9.06928 23.596 8.90528 23.868 8.68928 24.1C8.47328 24.324 8.20928 24.5 7.89728 24.628C7.59328 24.748 7.24928 24.808 6.86528 24.808H4.68128V28H3.09728ZM4.68128 23.44H6.72128C7.02528 23.44 7.26528 23.36 7.44128 23.2C7.61728 23.032 7.70528 22.796 7.70528 22.492V21.94C7.70528 21.636 7.61728 21.404 7.44128 21.244C7.26528 21.084 7.02528 21.004 6.72128 21.004H4.68128V23.44ZM10.7848 19.624H13.8328C14.3768 19.624 14.8688 19.712 15.3088 19.888C15.7568 20.064 16.1368 20.328 16.4488 20.68C16.7688 21.024 17.0128 21.46 17.1808 21.988C17.3568 22.508 17.4448 23.116 17.4448 23.812C17.4448 24.508 17.3568 25.12 17.1808 25.648C17.0128 26.168 16.7688 26.604 16.4488 26.956C16.1368 27.3 15.7568 27.56 15.3088 27.736C14.8688 27.912 14.3768 28 13.8328 28H10.7848V19.624ZM13.8328 26.596C14.4248 26.596 14.8928 26.424 15.2368 26.08C15.5888 25.728 15.7648 25.192 15.7648 24.472V23.152C15.7648 22.432 15.5888 21.9 15.2368 21.556C14.8928 21.204 14.4248 21.028 13.8328 21.028H12.3688V26.596H13.8328ZM19.0582 28V19.624H24.4462V21.028H20.6422V23.056H23.9542V24.46H20.6422V28H19.0582Z" fill="white"/>
</svg>