<svg width="32" height="40" viewBox="0 0 32 40" fill="none" xmlns="http://www.w3.org/2000/svg">
<path d="M24 0H4C1.79077 0 0 1.79089 0 4V36C0 38.2091 1.79077 40 4 40H28C30.2092 40 32 38.2091 32 36V8L24 0Z" fill="#EEEEEE"/>
<path d="M32 8L24 0V4C24 6.20914 25.7909 8 28 8H32Z" fill="#D9D9D9"/>
<path d="M25 15H7C6 15 5 16 5 17V31C5 32.1 5.9 33 7 33H25C26 33 27 32 27 31V17C27 16 26 15 25 15ZM25 30.92C24.98 30.95 24.94 30.98 24.92 31H7V17.08L7.08 17H24.91C24.94 17.02 24.97 17.06 24.99 17.08V30.92H25ZM15 27.51L12.5 24.5L9 29H23L18.5 23L15 27.51Z" fill="#00B779"/>
</svg>