<svg width="32" height="40" viewBox="0 0 32 40" fill="none" xmlns="http://www.w3.org/2000/svg">
<path d="M24 0H4C1.79077 0 0 1.79089 0 4V36C0 38.2091 1.79077 40 4 40H28C30.2092 40 32 38.2091 32 36V8L24 0Z" fill="#EEEEEE"/>
<path d="M32 8L24 0V4C24 6.20914 25.7909 8 28 8H32Z" fill="#D9D9D9"/>
<path fill-rule="evenodd" clip-rule="evenodd" d="M0 32H24C26.2091 32 28 30.2091 28 28V20C28 17.7909 26.2091 16 24 16H0V32Z" fill="#006B47"/>
<path d="M11.187 28H9.33897L7.41897 24.784H7.38297L5.48697 28H3.75897L6.47097 23.704L3.87897 19.624H5.72697L7.50297 22.6H7.53897L9.33897 19.624H11.067L8.45097 23.704L11.187 28ZM12.3903 28V19.624H13.9743V26.596H17.2743V28H12.3903ZM21.2521 28.144C20.5321 28.144 19.9201 28.016 19.4161 27.76C18.9201 27.504 18.4921 27.168 18.1321 26.752L19.2001 25.72C19.4881 26.056 19.8081 26.312 20.1601 26.488C20.5201 26.664 20.9161 26.752 21.3481 26.752C21.8361 26.752 22.2041 26.648 22.4521 26.44C22.7001 26.224 22.8241 25.936 22.8241 25.576C22.8241 25.296 22.7441 25.068 22.5841 24.892C22.4241 24.716 22.1241 24.588 21.6841 24.508L20.8921 24.388C19.2201 24.124 18.3841 23.312 18.3841 21.952C18.3841 21.576 18.4521 21.236 18.5881 20.932C18.7321 20.628 18.9361 20.368 19.2001 20.152C19.4641 19.936 19.7801 19.772 20.1481 19.66C20.5241 19.54 20.9481 19.48 21.4201 19.48C22.0521 19.48 22.6041 19.584 23.0761 19.792C23.5481 20 23.9521 20.308 24.2881 20.716L23.2081 21.736C23.0001 21.48 22.7481 21.272 22.4521 21.112C22.1561 20.952 21.7841 20.872 21.3361 20.872C20.8801 20.872 20.5361 20.96 20.3041 21.136C20.0801 21.304 19.9681 21.544 19.9681 21.856C19.9681 22.176 20.0601 22.412 20.2441 22.564C20.4281 22.716 20.7241 22.828 21.1321 22.9L21.9121 23.044C22.7601 23.196 23.3841 23.468 23.7841 23.86C24.1921 24.244 24.3961 24.784 24.3961 25.48C24.3961 25.88 24.3241 26.244 24.1801 26.572C24.0441 26.892 23.8401 27.172 23.5681 27.412C23.3041 27.644 22.9761 27.824 22.5841 27.952C22.2001 28.08 21.7561 28.144 21.2521 28.144Z" fill="white"/>
</svg>