<svg width="20" height="20" viewBox="0 0 20 20" fill="none" xmlns="http://www.w3.org/2000/svg">
<path d="M2.5 10.8333H4.16667V9.16667H2.5V10.8333ZM2.5 14.1667H4.16667V12.5H2.5V14.1667ZM4.16667 17.5V15.8333H2.5C2.5 16.75 3.24167 17.5 4.16667 17.5ZM2.5 7.5H4.16667V5.83333H2.5V7.5ZM12.5 17.5H14.1667V15.8333H12.5V17.5ZM15.8333 2.5H7.5C6.575 2.5 5.83333 3.25 5.83333 4.16667V12.5C5.83333 13.4167 6.575 14.1667 7.5 14.1667H15.8333C16.75 14.1667 17.5 13.4167 17.5 12.5V4.16667C17.5 3.25 16.75 2.5 15.8333 2.5ZM15.8333 12.5H7.5V4.16667H15.8333V12.5ZM9.16667 17.5H10.8333V15.8333H9.16667V17.5ZM5.83333 17.5H7.5V15.8333H5.83333V17.5Z" fill="white"/>
</svg>
