<svg width="45" height="44" viewBox="0 0 45 44" fill="none" xmlns="http://www.w3.org/2000/svg">
<path d="M22.5 38.5C31.6127 38.5 39 31.1127 39 22C39 12.8873 31.6127 5.5 22.5 5.5C13.3873 5.5 6 12.8873 6 22C6 31.1127 13.3873 38.5 22.5 38.5Z" stroke="#D90000" stroke-width="2" stroke-linecap="round" stroke-linejoin="round"/>
<path d="M25.25 29.334C25.25 30.8528 24.0188 32.084 22.5 32.084C20.9812 32.084 19.75 30.8528 19.75 29.334C19.75 27.8152 20.9812 26.584 22.5 26.584C24.0188 26.584 25.25 27.8152 25.25 29.334Z" fill="#D90000"/>
<path d="M19.9073 14.8759C20.6216 14.1616 21.5573 13.8036 22.4935 13.802C23.4341 13.8003 24.3751 14.1583 25.0927 14.8759C25.8087 15.5919 26.1667 16.5303 26.1667 17.4687C26.1667 18.407 25.8087 19.3454 25.0927 20.0614C24.3751 20.779 23.4341 21.137 22.4935 21.1353L22.5 22.9687" stroke="#D90000" stroke-width="2" stroke-linecap="round" stroke-linejoin="round"/>
</svg>
