<svg width="19" height="17" viewBox="0 0 19 17" fill="none" xmlns="http://www.w3.org/2000/svg">
<path d="M0.910156 5.41093C2.53704 3.82302 4.16345 2.23511 5.78941 0.646308C5.83732 0.599776 5.87647 0.544295 5.91378 0.5C6.2514 0.832884 6.56508 1.14205 6.89442 1.46599C5.78895 2.52728 4.66276 3.6087 3.53656 4.68968L3.57433 4.76172H3.78115C6.65997 4.76172 9.53879 4.76664 12.4176 4.75948C13.7654 4.7559 14.9957 5.10623 16.0776 5.88878C17.5332 6.94157 18.3747 8.35229 18.5331 10.1174C18.8049 13.1523 16.6746 15.8637 13.6046 16.4028C13.2228 16.4699 12.828 16.4941 12.4388 16.495C9.82437 16.503 7.20994 16.499 4.59551 16.499H4.41126V15.1567C4.47851 15.1567 4.54991 15.1567 4.62176 15.1567C7.23066 15.1567 9.83911 15.1585 12.448 15.1563C14.4102 15.1545 16.0822 14.0901 16.8238 12.3787C17.9749 9.72141 16.2803 6.68251 13.3614 6.1805C13.0689 6.13039 12.7681 6.10802 12.471 6.10757C9.57518 6.1022 6.67885 6.10444 3.78299 6.10444H3.56973C4.71757 7.2051 5.83179 8.27355 6.93633 9.3326C6.5812 9.68293 6.26707 9.9921 5.93773 10.3169C5.89719 10.2789 5.84837 10.2355 5.80139 10.1903C4.22241 8.64938 2.64482 7.10846 1.0663 5.56797C1.01932 5.52189 0.962666 5.48565 0.910156 5.44449V5.41093Z" fill="white"/>
</svg>
