<svg width="24" height="23" viewBox="0 0 24 23" fill="none" xmlns="http://www.w3.org/2000/svg">
<path d="M23.2984 21.1214C23.2059 21.5544 23.0469 21.9561 22.7076 22.2568C21.9126 22.9592 20.8851 22.9087 20.1068 22.1221C18.4932 20.4911 16.8844 18.8578 15.2755 17.2244C15.2138 17.1619 15.1735 17.0801 15.1474 17.0416C14.5447 17.3615 14.0203 17.6911 13.4579 17.9268C10.9948 18.9636 8.5293 18.9516 6.0923 17.8282C4.27464 16.9887 2.88648 15.6608 1.9207 13.8952C1.05458 12.3051 0.691519 10.5924 0.829149 8.77379C0.997627 6.52221 1.87798 4.58816 3.43225 2.99089C4.91296 1.46578 6.71876 0.563705 8.82592 0.315935C10.7124 0.0946262 12.5016 0.428995 14.1745 1.34069C15.5698 2.10084 16.6969 3.15928 17.5512 4.51359C18.4339 5.91361 18.9156 7.44594 18.9749 9.10576C19.039 10.8979 18.6309 12.5793 17.7244 14.1237C17.62 14.3017 17.6247 14.4003 17.7742 14.5519C19.3404 16.1251 20.8923 17.7128 22.4584 19.2836C22.857 19.6829 23.1987 20.1015 23.3008 20.6788V21.1238L23.2984 21.1214ZM3.74311 9.46659C3.74548 12.9017 6.51231 15.6969 9.89848 15.6897C13.2823 15.6825 16.0372 12.9089 16.0325 9.4714C16.0278 5.99059 13.2799 3.24588 9.89136 3.23866C6.50757 3.22904 3.73836 6.0387 3.74311 9.46659Z" fill="#DFE0EB"/>
</svg>
