<svg width="44" height="44" viewBox="0 0 44 44" fill="none" xmlns="http://www.w3.org/2000/svg">
<circle cx="22" cy="22" r="21" stroke="#D90000" stroke-width="2"/>
<path d="M21.3689 25.96L20.3849 18.976V14.248H23.6489V18.976L22.7129 25.96H21.3689ZM22.0169 31.288C21.3289 31.288 20.8329 31.128 20.5289 30.808C20.2249 30.488 20.0729 30.08 20.0729 29.584V29.104C20.0729 28.608 20.2249 28.2 20.5289 27.88C20.8329 27.56 21.3289 27.4 22.0169 27.4C22.6889 27.4 23.1769 27.56 23.4809 27.88C23.7849 28.2 23.9369 28.608 23.9369 29.104V29.584C23.9369 30.08 23.7849 30.488 23.4809 30.808C23.1769 31.128 22.6889 31.288 22.0169 31.288Z" fill="#D90000"/>
</svg>
