<svg width="23" height="25" viewBox="0 0 23 25" fill="none" xmlns="http://www.w3.org/2000/svg">
<path d="M11.9346 0H11.0717C10.5079 0.113932 9.95822 0.263021 9.44891 0.554036C6.73319 2.10352 4.00978 3.63997 1.29983 5.19987C0.988474 5.37891 0.690573 5.63412 0.474033 5.92253C-0.363297 7.03776 -0.0480976 8.64388 1.12749 9.38997C1.41643 9.57292 1.71689 9.73633 2.0385 9.92383C1.76366 10.0807 1.5215 10.2194 1.27933 10.3581C0.457375 10.8288 0.0121231 11.5462 0.0134048 12.5039C0.0146866 13.4512 0.454813 14.1641 1.26588 14.6335C1.51253 14.776 1.76046 14.9173 2.0385 15.0768C1.71113 15.2676 1.40938 15.431 1.12045 15.6146C-0.344719 16.5469 -0.388924 18.7467 1.08393 19.6628C2.44531 20.5091 3.86051 21.2669 5.25841 22.0521C5.63319 22.2624 6.06819 22.1712 6.36225 21.8717C6.82929 21.3958 6.71205 20.653 6.10855 20.3079C4.82789 19.5755 3.54531 18.8464 2.26145 18.1204C2.07438 18.015 1.92895 17.8874 1.92959 17.6556C1.92959 17.4225 2.07822 17.2956 2.26465 17.1914C2.7823 16.9023 3.29994 16.612 3.81054 16.3092C3.95981 16.2207 4.07 16.222 4.22248 16.3092C5.94775 17.2975 7.67559 18.2819 9.40727 19.2591C10.8141 20.0534 12.2242 20.043 13.6285 19.2454C15.3576 18.2637 17.0855 17.2806 18.8165 16.3021C18.8895 16.2604 19.0106 16.2214 19.0708 16.2546C19.682 16.5892 20.2926 16.9277 20.8884 17.2904C21.1606 17.4557 21.144 17.8418 20.8852 18.0326C20.8205 18.0801 20.7493 18.1178 20.6795 18.1576C18.0657 19.6432 15.4448 21.1159 12.8418 22.6211C11.9891 23.1139 11.1742 23.1947 10.3042 22.7005C9.84867 22.4421 9.29067 22.6354 9.04145 23.0892C8.78968 23.5475 8.92742 24.1087 9.37139 24.3919C9.53283 24.4948 9.70325 24.5957 9.88327 24.655C10.2753 24.7845 10.6764 24.8874 11.0736 25.0007H11.9366C11.9731 24.987 12.0089 24.9655 12.0467 24.9609C12.6182 24.89 13.141 24.681 13.6413 24.3958C16.316 22.8724 18.9914 21.3483 21.6706 19.8327C22.5175 19.3529 22.9961 18.6387 22.9935 17.6484C22.991 16.668 22.5201 15.9505 21.6744 15.4863C21.4451 15.3607 21.2196 15.2279 20.9582 15.0794C21.2394 14.9193 21.4816 14.7819 21.7238 14.6439C22.5457 14.1738 22.9935 13.4583 22.9935 12.5C22.9935 11.5417 22.5464 10.8262 21.7238 10.3568C21.4816 10.2188 21.2394 10.0814 20.9627 9.92383C21.2894 9.73372 21.5905 9.57096 21.8795 9.38802C23.385 8.4349 23.3702 6.21484 21.8545 5.27865C21.6431 5.14779 21.424 5.0306 21.2081 4.90755C18.657 3.45833 16.1053 2.01042 13.5568 0.555339C13.0481 0.264974 12.499 0.113932 11.9346 0ZM11.5163 1.88021C11.8783 2.00326 12.2569 2.07096 12.5759 2.25C15.3083 3.78451 18.0298 5.33984 20.7558 6.88607C20.9345 6.98763 21.0729 7.11003 21.0774 7.33203C21.0818 7.56576 20.9403 7.69531 20.7532 7.80143C18.0343 9.3444 15.3185 10.8926 12.599 12.4342C11.8718 12.8464 11.1351 12.8385 10.4048 12.4342C10.0332 12.2285 9.66545 12.0156 9.29579 11.806C6.95421 10.4746 4.61263 9.14388 2.27234 7.81185C1.83157 7.5612 1.80018 7.14583 2.21276 6.91081C4.96371 5.3431 7.71467 3.77474 10.4752 2.22461C10.7795 2.05339 11.1473 1.9987 11.5169 1.88021H11.5163ZM11.5009 17.9583C11.1351 17.8392 10.7603 17.7806 10.449 17.6061C7.70249 16.0638 4.96628 14.502 2.22942 12.9421C1.81556 12.7064 1.82068 12.2949 2.23518 12.0547C2.75539 11.7533 3.28457 11.4668 3.80029 11.1582C3.95917 11.0632 4.07385 11.0671 4.23209 11.1582C5.92917 12.1309 7.6333 13.0911 9.33039 14.0638C10.7834 14.8965 12.2261 14.8958 13.6791 14.0619C15.3826 13.084 17.0932 12.1198 18.7986 11.1452C18.9293 11.0703 19.0292 11.0547 19.1676 11.1367C19.7057 11.4557 20.2541 11.7559 20.7955 12.069C21.1786 12.2904 21.1792 12.7129 20.7948 12.9323C18.0503 14.4954 15.3077 16.0618 12.5535 17.6081C12.2421 17.7832 11.8674 17.8405 11.5016 17.959L11.5009 17.9583Z" fill="black"/>
</svg>
