<svg width="25" height="26" viewBox="0 0 25 26" fill="none" xmlns="http://www.w3.org/2000/svg">
<path d="M0 0.957345C0.180487 0.594443 0.472479 0.496257 0.861802 0.500108C2.50603 0.516472 4.1512 0.506846 5.79543 0.507809C6.30381 0.507809 6.54289 0.749422 6.54289 1.26442C6.54289 3.24642 6.54289 5.22842 6.54289 7.21042V7.47706L6.58258 7.48957C6.61848 7.41257 6.65723 7.33748 6.6903 7.25951C7.45761 5.40554 8.22491 3.55252 8.99222 1.69855C9.21428 1.16045 9.50722 1.03724 10.0326 1.26249C11.485 1.88626 12.9384 2.51099 14.3898 3.13668C14.9095 3.36 15.0277 3.65264 14.8103 4.18014C14.0345 6.05722 13.2578 7.9343 12.4819 9.81041C12.4517 9.88453 12.4262 9.96058 12.4356 10.0684C12.4952 10.0116 12.5557 9.95577 12.6142 9.89705C13.991 8.49646 15.3669 7.09491 16.7437 5.69432C17.1623 5.26885 17.4628 5.27077 17.8852 5.70106C18.9908 6.8273 20.0955 7.95355 21.2001 9.0798C21.6235 9.51201 21.6235 9.81234 21.2001 10.2445C19.7836 11.6865 18.3671 13.1295 16.9478 14.5686C16.8864 14.6302 16.8013 14.6667 16.7267 14.7149L16.79 14.7928C17.4364 14.5522 18.0837 14.3115 18.73 14.0709C19.9282 13.6242 21.1255 13.1757 22.3237 12.73C22.7895 12.5567 23.0929 12.6973 23.263 13.1699C23.8214 14.7158 24.378 16.2627 24.9337 17.8097C25.1019 18.2775 24.9554 18.5913 24.4914 18.7646C18.5703 20.9747 12.6502 23.1868 6.72432 25.3825C6.42477 25.4932 6.07419 25.4864 5.74629 25.4883C4.11813 25.498 2.48996 25.4835 0.861802 25.4999C0.472479 25.5037 0.179542 25.4056 0 25.0427V0.957345H0ZM1.236 24.2341H5.30405V1.76786H1.236V24.2341ZM7.12687 22.7526C11.4302 18.3603 15.709 13.992 19.983 9.62848C19.1061 8.73807 18.2074 7.82552 17.3022 6.90624C17.2634 6.94185 17.2134 6.98421 17.168 7.03041C15.1694 9.06439 13.1708 11.0974 11.176 13.1352C11.0929 13.22 11.0295 13.3326 10.9832 13.4442C9.98915 15.8382 8.99789 18.2332 8.00663 20.6291C7.71747 21.3289 7.42737 22.0278 7.12687 22.7536V22.7526ZM6.54383 20.8082L6.59675 20.8159C8.89961 15.252 11.2025 9.68816 13.5101 4.1118C12.31 3.5968 11.1439 3.09625 9.96741 2.59185C9.93056 2.66597 9.89843 2.72276 9.87386 2.78148C8.78433 5.41324 7.69385 8.045 6.60998 10.6787C6.56179 10.7961 6.54572 10.9347 6.54572 11.0637C6.54194 14.2317 6.54289 17.3996 6.54289 20.5675V20.8082H6.54383ZM22.2878 14.0844C22.2254 14.1036 22.1876 14.1133 22.1508 14.1267C19.6873 15.0451 17.2228 15.9634 14.7602 16.8865C14.6591 16.925 14.5637 17.002 14.4862 17.0819C12.446 19.1544 10.4087 21.2288 8.37138 23.3042C8.31941 23.3562 8.27311 23.4139 8.17672 23.5227C13.3626 21.5879 18.4777 19.679 23.6107 17.7625C23.1656 16.5265 22.7281 15.3107 22.2868 14.0844H22.2878Z" fill="black"/>
</svg>
