<svg width="25" height="24" viewBox="0 0 25 24" fill="none" xmlns="http://www.w3.org/2000/svg">
<path fill-rule="evenodd" clip-rule="evenodd" d="M9.97066 5.38987C9.97066 4.62362 10.5899 4.00441 11.3561 4.00441H13.6439C14.4101 4.00441 15.0293 4.62362 15.0293 5.38987V5.80027C18.8803 6.89715 21.7019 10.4437 21.7019 14.6493V16.357C22.4309 16.3631 23.02 16.956 23.02 17.6865V18.666C23.02 19.4003 22.4247 19.9956 21.6904 19.9956H3.30959C2.57528 19.9956 1.98 19.4003 1.98 18.666V17.6865C1.98 16.956 2.56907 16.3631 3.29808 16.357V14.6493C3.29808 10.4433 6.1201 6.90014 9.97066 5.80056V5.38987ZM9.97066 6.83463C6.67337 7.90168 4.28746 10.9965 4.28746 14.6493V16.3569H20.7125V14.6493C20.7125 10.9961 18.3263 7.89866 15.0293 6.83413V11.2703C15.0293 11.5435 14.8079 11.765 14.5346 11.765C14.2614 11.765 14.04 11.5435 14.04 11.2703V5.38987C14.04 5.17004 13.8637 4.99379 13.6439 4.99379H11.3561C11.1363 4.99379 10.96 5.17004 10.96 5.38987V11.2703C10.96 11.5435 10.7386 11.765 10.4654 11.765C10.1921 11.765 9.97066 11.5435 9.97066 11.2703V6.83463ZM21.6904 17.3463H3.30959C3.1217 17.3463 2.96938 17.4986 2.96938 17.6865V18.666C2.96938 18.8539 3.1217 19.0062 3.30959 19.0062H21.6904C21.8783 19.0062 22.0306 18.8539 22.0306 18.666V17.6865C22.0306 17.4986 21.8783 17.3463 21.6904 17.3463Z" fill="#8C9196"/>
</svg>

