<svg width="22" height="15" viewBox="0 0 22 15" fill="none" xmlns="http://www.w3.org/2000/svg">
<path d="M20.9004 2.14658H6.60026C5.94024 2.14658 5.49934 1.71857 5.49934 1.07589C5.49934 0.433224 5.94024 0.00391965 6.60026 0.00391965H20.9004C21.5604 0.00391965 22 0.433224 22 1.07589C22 1.71857 21.5604 2.14658 20.9004 2.14658ZM20.9004 8.57329H6.60026C5.94024 8.57329 5.49934 8.14527 5.49934 7.5026C5.49934 6.85993 5.94024 6.43063 6.60026 6.43063H20.9004C21.5604 6.43063 22 6.85993 22 7.5026C22 8.14527 21.5604 8.57329 20.9004 8.57329ZM20.9004 15H6.60026C5.94024 15 5.49934 14.572 5.49934 13.9293C5.49934 13.2866 5.94024 12.8573 6.60026 12.8573H20.9004C21.5604 12.8573 22 13.2866 22 13.9293C22 14.572 21.5604 15 20.9004 15ZM1.0996 2.14658H0.879155C0.769591 2.14658 0.769591 2.14658 0.660026 2.0399C0.549142 2.0399 0.549142 1.93193 0.439577 1.93193C0.330013 1.93193 0.330013 1.82525 0.330013 1.82525C0.219129 1.71857 0.109564 1.6106 0.109564 1.50391C-6.88461e-08 1.39723 0 1.18258 0 1.07589C0 0.967926 -6.88461e-08 0.754559 0.109564 0.64659C0.219129 0.539907 0.219129 0.433224 0.330013 0.325255C0.660026 0.00391964 1.0996 -0.102764 1.53918 0.111888C1.65007 0.218572 1.75963 0.218572 1.86919 0.325255C2.08964 0.539907 2.19921 0.754559 2.19921 1.07589C2.19921 1.39723 2.08964 1.6106 1.86919 1.82525C1.65007 2.0399 1.42962 2.14658 1.0996 2.14658ZM1.0996 8.57329C0.769591 8.57329 0.549142 8.46661 0.330013 8.25196C0.109564 8.0373 0 7.82394 0 7.5026V7.28795C0 7.18127 -6.88461e-08 7.18127 0.109564 7.0733C0.109564 6.96662 0.219129 6.96662 0.219129 6.85993C0.219129 6.75196 0.330013 6.75196 0.330013 6.75196C0.439578 6.64528 0.549142 6.5386 0.660026 6.5386C1.0996 6.32394 1.53918 6.43063 1.86919 6.75196L1.98008 6.85993C1.98008 6.96662 2.08964 6.96662 2.08964 7.0733C2.08964 7.18127 2.08964 7.18127 2.19921 7.28795V7.5026C2.19921 7.82394 2.08964 8.0373 1.86919 8.25196C1.65007 8.46661 1.42962 8.57329 1.0996 8.57329ZM1.0996 15C0.769591 15 0.549142 14.8933 0.330013 14.6787C0.109564 14.464 0 14.2506 0 13.9293C0 13.8213 -6.88461e-08 13.608 0.109564 13.5C0.219129 13.3933 0.219129 13.2866 0.330013 13.1787C0.769591 12.7507 1.42962 12.7507 1.86919 13.1787C2.08964 13.3933 2.19921 13.608 2.19921 13.9293C2.19921 14.2506 2.08964 14.464 1.86919 14.6787C1.65007 14.8933 1.42962 15 1.0996 15Z" />
</svg>
