<svg width="24" height="24" viewBox="0 0 24 24" fill="none" xmlns="http://www.w3.org/2000/svg">
<path fill-rule="evenodd" clip-rule="evenodd" d="M11.749 0.0672629C11.9043 -0.022421 12.0957 -0.022421 12.251 0.0672629L22.2005 5.81202C22.2776 5.85469 22.3443 5.91818 22.3916 5.99999C22.4389 6.08202 22.4605 6.17185 22.4588 6.26012V17.749C22.4588 17.9283 22.3632 18.0941 22.2079 18.1837L12.258 23.9287C12.1874 23.9711 12.1054 23.9966 12.0178 23.9997C12.0119 23.9999 12.0059 24 12 24C11.9049 24 11.816 23.9736 11.7402 23.9276L1.79217 18.1837C1.63686 18.0941 1.54119 17.9283 1.54119 17.749V6.26171C1.53921 6.17293 1.56076 6.08251 1.60841 5.99999C1.6558 5.91791 1.72287 5.85428 1.80022 5.81162L11.749 0.0672629ZM20.9529 6.251L12 1.08167L3.0471 6.25101L12 11.4204L20.9529 6.251ZM12.502 12.2898L21.4548 7.12053V17.4592L12.502 22.6285V12.2898ZM2.54518 17.4592V7.12055L11.498 12.2898V22.6285L2.54518 17.4592Z" fill="#8C9196"/>
</svg>

