<svg width="500" height="500" viewBox="0 0 500 500" fill="none" xmlns="http://www.w3.org/2000/svg">
<path opacity="0.2" d="M108.654 379.495C118.333 389.472 126.993 395.337 133.624 399.764C198.294 442.945 272.217 430.499 295.073 426.245C331.948 419.383 363.074 414.54 389.818 390.379C450.588 335.476 447.632 220.943 401.197 149.995C395.691 141.582 349.325 72.8545 275.241 63.1699C273.43 62.9327 272.077 62.7979 270.894 62.6726C259.433 61.4596 188.414 55.0553 130.504 103.571C122.214 110.516 108.875 123.043 96.5041 142.148C51.2723 212.007 51.1281 320.201 108.654 379.495Z" fill="#57B6B2"/>
<path d="M112.129 138.781L246.714 58.8024C247.5 58.7633 248.28 58.9318 248.939 59.2862L395.606 138.044L384.296 152.22L249.197 79.6757C248.438 79.2687 247.451 79.2876 246.716 79.7242L124.244 152.505L112.129 138.781Z" fill="#92E0DC"/>
<path d="M119.612 387.059H139.846L139.846 141.401H119.612L119.612 387.059Z" fill="#92E0DC"/>
<path d="M206.634 388.916H226.868L226.868 143.258H206.634L206.634 388.916Z" fill="#92E0DC"/>
<path d="M290.19 389.52H310.425L310.425 143.862H290.19V389.52Z" fill="#92E0DC"/>
<path d="M373.747 385.697H393.981L393.981 140.04H373.747V385.697Z" fill="#92E0DC"/>
<path d="M115.193 391.802H410.696V378.215H115.191C114.574 378.215 114.074 378.715 114.074 379.332V390.683C114.074 391.301 114.576 391.802 115.193 391.802Z" fill="#92E0DC"/>
<path d="M112.394 151.573H395.654C396.553 151.573 397.281 150.846 397.281 149.947V137.948C397.281 137.317 396.77 136.807 396.139 136.807H112.414C111.514 136.807 110.783 137.537 110.783 138.437V149.963C110.783 150.852 111.504 151.573 112.394 151.573Z" fill="#92E0DC"/>
<path d="M216.75 147.825C218.176 147.825 219.333 146.669 219.333 145.242C219.333 143.815 218.176 142.658 216.75 142.658C215.323 142.658 214.166 143.815 214.166 145.242C214.166 146.669 215.323 147.825 216.75 147.825Z" fill="#59B3B0"/>
<path d="M216.749 146.929C217.681 146.929 218.435 146.174 218.435 145.243C218.435 144.311 217.681 143.557 216.749 143.557C215.818 143.557 215.063 144.311 215.063 145.243C215.063 146.174 215.818 146.929 216.749 146.929Z" fill="#CECECE"/>
<path d="M302.131 147.106C303.14 146.097 303.14 144.461 302.131 143.452C301.122 142.444 299.486 142.444 298.477 143.452C297.468 144.461 297.468 146.097 298.477 147.106C299.486 148.115 301.122 148.115 302.131 147.106Z" fill="#59B3B0"/>
<path d="M301.496 146.471C302.155 145.813 302.155 144.746 301.496 144.087C300.838 143.429 299.77 143.429 299.112 144.087C298.454 144.746 298.454 145.813 299.112 146.471C299.77 147.13 300.838 147.13 301.496 146.471Z" fill="#CECECE"/>
<path d="M388.776 146.26C389.322 144.942 388.696 143.431 387.378 142.885C386.06 142.339 384.548 142.965 384.002 144.283C383.456 145.601 384.082 147.113 385.401 147.659C386.719 148.205 388.23 147.579 388.776 146.26Z" fill="#59B3B0"/>
<path d="M387.947 145.918C388.303 145.058 387.895 144.072 387.035 143.715C386.174 143.359 385.188 143.768 384.832 144.628C384.475 145.488 384.884 146.474 385.744 146.831C386.604 147.187 387.591 146.779 387.947 145.918Z" fill="#CECECE"/>
<path d="M129.295 147.779C130.684 147.451 131.543 146.059 131.216 144.671C130.888 143.282 129.496 142.422 128.108 142.75C126.719 143.078 125.859 144.469 126.187 145.858C126.515 147.247 127.906 148.107 129.295 147.779Z" fill="#59B3B0"/>
<path d="M129.089 146.906C129.995 146.692 130.556 145.784 130.342 144.878C130.128 143.971 129.22 143.41 128.314 143.624C127.407 143.838 126.846 144.746 127.06 145.653C127.274 146.559 128.182 147.12 129.089 146.906Z" fill="#CECECE"/>
<path d="M235.238 290.748H415.765V276.408H235.238V290.748Z" fill="#59B3B0"/>
<path d="M405.121 341.659H416.241V275.418C416.241 274.628 415.601 273.986 414.81 273.986H406.4C405.694 273.986 405.121 274.559 405.121 275.265V341.659V341.659Z" fill="#59B3B0"/>
<path d="M232.818 341.659H243.938V274.842C243.938 274.369 243.556 273.986 243.083 273.986H233.965C233.332 273.986 232.818 274.5 232.818 275.133V341.659Z" fill="#59B3B0"/>
<path d="M305.361 323.939L351.758 355.366L391.882 188.625L380.383 182.523L305.361 323.939Z" fill="#9079BC"/>
<path d="M306.651 318.728L281.951 365.287C281.195 366.713 282.183 368.542 283.914 368.919L303.589 373.205C303.999 373.294 304.389 373.474 304.726 373.728L332.187 394.494C333.551 395.525 335.474 395.156 336.108 393.741L354.958 351.691C355.377 350.757 338.73 324.552 335.272 319.127C334.881 318.513 334.213 318.137 333.486 318.121C328.27 318.004 307.248 317.602 306.651 318.728ZM304.73 347.784C306.008 345.861 308.585 345.303 310.542 346.528C318.683 351.625 328.654 358.263 333.317 361.389C334.863 362.426 335.484 364.393 334.814 366.129L330.197 378.093C330.003 378.596 328.964 378.524 328.077 377.947L310.225 366.335C310.007 366.193 309.765 366.075 309.524 365.992L297.956 361.98C296.938 361.626 296.171 360.769 296.433 360.276L304.73 347.784Z" fill="#3A0092"/>
<path d="M260.493 295.602L265.016 293.666C265.418 293.493 265.605 293.028 265.432 292.627L263.496 288.104C263.323 287.702 262.858 287.515 262.457 287.687L257.934 289.624C257.532 289.796 257.345 290.261 257.517 290.663L259.454 295.186C259.625 295.589 260.091 295.775 260.493 295.602Z" fill="#3A0092"/>
<path d="M299.816 403.052L312.823 397.482L271.007 299.816L257.999 305.385L299.816 403.052Z" fill="#3A0092"/>
<path d="M243.244 298.821L274.334 285.51L279.569 297.732L248.477 311.045L233.807 311.665L232.783 309.274L243.244 298.821Z" fill="#999999"/>
<path d="M414.748 216.215L434.97 228.945C436.087 229.649 436.423 231.123 435.72 232.241L354.246 361.664C353.543 362.781 352.069 363.117 350.951 362.413L330.728 349.684C329.61 348.98 329.275 347.506 329.978 346.389L411.451 216.966C412.155 215.847 413.631 215.513 414.748 216.215Z" fill="#92E0DC"/>
<path d="M415.749 219.75L431.696 229.79C432.366 230.211 432.572 231.089 432.157 231.749L352.62 358.098C351.927 359.199 350.387 359.637 349.269 358.935L334.94 349.915C333.823 349.211 333.552 347.633 334.246 346.532L413.784 220.183C414.198 219.523 415.079 219.329 415.749 219.75Z" fill="#CECECE"/>
<path d="M412.24 219.557C412.019 219.908 412.124 220.373 412.476 220.592L422.644 226.994C422.994 227.215 423.458 227.11 423.679 226.758L423.752 226.642C423.973 226.292 423.868 225.828 423.516 225.607L413.347 219.205C412.997 218.984 412.532 219.09 412.312 219.441L412.24 219.557Z" fill="#3A0092"/>
<path d="M410.313 222.62C410.072 223.002 410.186 223.508 410.57 223.749L415.77 227.023C416.152 227.264 416.658 227.149 416.899 226.765C417.14 226.382 417.026 225.877 416.642 225.636L411.442 222.362C411.059 222.121 410.553 222.237 410.313 222.62Z" fill="#3A0092"/>
<path d="M408.348 225.741C408.106 226.124 408.222 226.629 408.605 226.87L413.804 230.144C414.187 230.385 414.693 230.27 414.934 229.886C415.175 229.504 415.061 228.998 414.676 228.757L409.477 225.483C409.094 225.242 408.589 225.358 408.348 225.741Z" fill="#3A0092"/>
<path d="M406.384 228.86C406.143 229.243 406.257 229.748 406.641 229.989L411.841 233.263C412.224 233.504 412.729 233.39 412.97 233.005C413.212 232.623 413.097 232.117 412.713 231.876L407.513 228.602C407.131 228.361 406.625 228.477 406.384 228.86Z" fill="#3A0092"/>
<path d="M404.42 231.981C404.179 232.364 404.294 232.869 404.678 233.11L409.877 236.384C410.26 236.625 410.765 236.511 411.006 236.127C411.248 235.744 411.133 235.238 410.749 234.997L405.55 231.724C405.167 231.482 404.66 231.598 404.42 231.981Z" fill="#3A0092"/>
<path d="M401.547 236.546C401.326 236.896 401.431 237.36 401.783 237.581L411.952 243.982C412.302 244.203 412.766 244.098 412.987 243.746L413.059 243.63C413.28 243.28 413.175 242.815 412.824 242.595L402.655 236.194C402.305 235.973 401.84 236.078 401.62 236.43L401.547 236.546Z" fill="#3A0092"/>
<path d="M399.618 239.608C399.377 239.991 399.492 240.496 399.876 240.737L405.075 244.011C405.458 244.252 405.963 244.138 406.205 243.754C406.446 243.371 406.331 242.865 405.947 242.624L400.748 239.351C400.365 239.109 399.86 239.225 399.618 239.608Z" fill="#3A0092"/>
<path d="M397.656 242.727C397.414 243.11 397.529 243.615 397.913 243.856L403.112 247.13C403.495 247.371 404.002 247.257 404.242 246.873C404.483 246.49 404.368 245.985 403.984 245.743L398.785 242.47C398.402 242.228 397.897 242.344 397.656 242.727Z" fill="#3A0092"/>
<path d="M395.69 245.848C395.449 246.23 395.563 246.736 395.947 246.977L401.147 250.251C401.529 250.492 402.035 250.377 402.276 249.993C402.517 249.61 402.403 249.105 402.019 248.864L396.819 245.59C396.438 245.35 395.931 245.465 395.69 245.848Z" fill="#3A0092"/>
<path d="M393.727 248.967C393.486 249.349 393.6 249.855 393.984 250.096L399.184 253.37C399.566 253.611 400.072 253.496 400.313 253.112C400.554 252.73 400.44 252.224 400.056 251.983L394.856 248.709C394.473 248.469 393.968 248.584 393.727 248.967Z" fill="#3A0092"/>
<path d="M390.853 253.532C390.632 253.882 390.737 254.346 391.089 254.567L401.257 260.969C401.608 261.19 402.071 261.084 402.292 260.733L402.365 260.617C402.586 260.266 402.481 259.803 402.129 259.582L391.961 253.18C391.61 252.959 391.147 253.064 390.926 253.416L390.853 253.532Z" fill="#3A0092"/>
<path d="M388.926 256.594C388.685 256.976 388.799 257.482 389.183 257.723L394.383 260.997C394.766 261.238 395.271 261.122 395.512 260.739C395.754 260.356 395.639 259.851 395.255 259.61L390.055 256.336C389.673 256.096 389.167 256.211 388.926 256.594Z" fill="#3A0092"/>
<path d="M386.961 259.713C386.72 260.096 386.835 260.601 387.219 260.842L392.418 264.116C392.801 264.357 393.306 264.242 393.547 263.858C393.789 263.476 393.674 262.97 393.29 262.729L388.091 259.455C387.709 259.216 387.202 259.33 386.961 259.713Z" fill="#3A0092"/>
<path d="M384.997 262.834C384.756 263.217 384.871 263.722 385.255 263.963L390.454 267.237C390.837 267.478 391.342 267.364 391.584 266.979C391.825 266.597 391.71 266.091 391.326 265.85L386.127 262.577C385.744 262.337 385.239 262.451 384.997 262.834Z" fill="#3A0092"/>
<path d="M383.033 265.953C382.792 266.336 382.907 266.841 383.291 267.082L388.49 270.356C388.873 270.597 389.378 270.483 389.62 270.099C389.861 269.716 389.746 269.21 389.362 268.969L384.163 265.696C383.78 265.456 383.275 265.57 383.033 265.953Z" fill="#3A0092"/>
<path d="M380.161 270.518C379.94 270.869 380.045 271.334 380.396 271.553L390.565 277.955C390.915 278.176 391.379 278.071 391.6 277.719L391.673 277.603C391.894 277.253 391.789 276.788 391.437 276.568L381.268 270.166C380.918 269.945 380.453 270.051 380.233 270.402L380.161 270.518Z" fill="#3A0092"/>
<path d="M378.232 273.58C377.99 273.963 378.105 274.468 378.489 274.709L383.689 277.983C384.071 278.224 384.577 278.11 384.818 277.726C385.059 277.343 384.945 276.837 384.561 276.596L379.361 273.323C378.978 273.083 378.473 273.197 378.232 273.58Z" fill="#3A0092"/>
<path d="M376.268 276.699C376.027 277.082 376.141 277.587 376.525 277.829L381.725 281.102C382.107 281.343 382.613 281.229 382.854 280.845C383.095 280.462 382.981 279.957 382.597 279.715L377.397 276.442C377.015 276.202 376.509 276.316 376.268 276.699Z" fill="#3A0092"/>
<path d="M374.305 279.821C374.064 280.204 374.178 280.709 374.562 280.951L379.762 284.224C380.145 284.465 380.65 284.351 380.891 283.967C381.132 283.584 381.018 283.079 380.634 282.837L375.434 279.564C375.052 279.323 374.545 279.437 374.305 279.821Z" fill="#3A0092"/>
<path d="M372.34 282.942C372.099 283.325 372.213 283.83 372.598 284.071L377.797 287.345C378.18 287.586 378.685 287.472 378.926 287.087C379.168 286.705 379.053 286.199 378.669 285.958L373.469 282.685C373.087 282.443 372.581 282.559 372.34 282.942Z" fill="#3A0092"/>
<path d="M369.466 287.506C369.245 287.857 369.35 288.32 369.702 288.542L379.871 294.943C380.221 295.164 380.686 295.059 380.906 294.707L380.978 294.591C381.199 294.241 381.094 293.777 380.743 293.556L370.574 287.155C370.224 286.934 369.759 287.039 369.539 287.391L369.466 287.506Z" fill="#3A0092"/>
<path d="M367.539 290.567C367.298 290.95 367.413 291.455 367.797 291.696L372.996 294.97C373.379 295.211 373.884 295.097 374.126 294.712C374.367 294.33 374.252 293.824 373.868 293.583L368.669 290.31C368.286 290.068 367.781 290.184 367.539 290.567Z" fill="#3A0092"/>
<path d="M365.574 293.688C365.333 294.071 365.449 294.576 365.832 294.817L371.031 298.091C371.414 298.332 371.919 298.218 372.16 297.834C372.402 297.451 372.287 296.945 371.903 296.704L366.704 293.431C366.322 293.189 365.815 293.305 365.574 293.688Z" fill="#3A0092"/>
<path d="M363.611 296.807C363.369 297.19 363.484 297.695 363.868 297.937L369.068 301.21C369.45 301.451 369.956 301.337 370.197 300.953C370.438 300.57 370.324 300.065 369.939 299.823L364.74 296.55C364.357 296.309 363.852 296.424 363.611 296.807Z" fill="#3A0092"/>
<path d="M361.647 299.928C361.406 300.311 361.52 300.816 361.904 301.058L367.104 304.331C367.486 304.572 367.992 304.458 368.233 304.074C368.474 303.691 368.36 303.186 367.976 302.944L362.776 299.671C362.393 299.43 361.888 299.546 361.647 299.928Z" fill="#3A0092"/>
<path d="M358.774 304.493C358.553 304.843 358.658 305.307 359.01 305.528L369.178 311.929C369.529 312.15 369.994 312.045 370.213 311.694L370.286 311.578C370.507 311.227 370.402 310.762 370.05 310.543L359.882 304.141C359.531 303.92 359.068 304.025 358.847 304.377L358.774 304.493Z" fill="#3A0092"/>
<path d="M356.845 307.555C356.604 307.937 356.718 308.443 357.102 308.684L362.302 311.958C362.685 312.199 363.19 312.084 363.431 311.7C363.672 311.317 363.557 310.812 363.174 310.571L357.974 307.297C357.592 307.057 357.086 307.172 356.845 307.555Z" fill="#3A0092"/>
<path d="M354.881 310.674C354.64 311.057 354.754 311.562 355.139 311.803L360.338 315.077C360.721 315.318 361.226 315.203 361.467 314.819C361.709 314.437 361.594 313.931 361.21 313.69L356.011 310.416C355.628 310.176 355.122 310.291 354.881 310.674Z" fill="#3A0092"/>
<path d="M352.918 313.795C352.677 314.178 352.793 314.683 353.175 314.924L358.375 318.198C358.758 318.439 359.263 318.325 359.504 317.94C359.745 317.558 359.631 317.052 359.247 316.811L354.047 313.537C353.665 313.298 353.158 313.412 352.918 313.795Z" fill="#3A0092"/>
<path d="M350.952 316.914C350.711 317.297 350.826 317.802 351.21 318.043L356.409 321.317C356.792 321.558 357.297 321.444 357.539 321.06C357.78 320.677 357.665 320.171 357.281 319.93L352.082 316.657C351.699 316.417 351.194 316.531 350.952 316.914Z" fill="#3A0092"/>
<path d="M348.08 321.479C347.858 321.829 347.964 322.294 348.315 322.514L358.484 328.916C358.834 329.137 359.298 329.032 359.519 328.68L359.592 328.564C359.813 328.214 359.708 327.75 359.356 327.529L349.187 321.127C348.837 320.906 348.372 321.011 348.152 321.363L348.08 321.479Z" fill="#3A0092"/>
<path d="M346.153 324.541C345.911 324.924 346.026 325.429 346.41 325.67L351.609 328.944C351.992 329.185 352.498 329.071 352.739 328.687C352.98 328.304 352.866 327.798 352.481 327.557L347.282 324.284C346.899 324.044 346.394 324.158 346.153 324.541Z" fill="#3A0092"/>
<path d="M344.188 327.66C343.947 328.043 344.061 328.55 344.445 328.789L349.645 332.063C350.027 332.304 350.533 332.19 350.774 331.806C351.015 331.423 350.901 330.917 350.517 330.676L345.317 327.403C344.936 327.163 344.429 327.277 344.188 327.66Z" fill="#3A0092"/>
<path d="M342.224 330.781C341.983 331.164 342.097 331.669 342.481 331.911L347.681 335.184C348.064 335.425 348.569 335.311 348.81 334.927C349.051 334.544 348.937 334.039 348.553 333.797L343.353 330.524C342.971 330.284 342.465 330.398 342.224 330.781Z" fill="#3A0092"/>
<path d="M340.26 333.9C340.019 334.283 340.133 334.788 340.517 335.03L345.717 338.303C346.1 338.545 346.605 338.43 346.846 338.046C347.088 337.663 346.973 337.158 346.589 336.917L341.389 333.643C341.007 333.403 340.501 333.518 340.26 333.9Z" fill="#3A0092"/>
<path d="M337.387 338.465C337.166 338.816 337.271 339.279 337.623 339.5L347.791 345.902C348.142 346.123 348.607 346.018 348.826 345.666L348.899 345.55C349.12 345.2 349.015 344.736 348.663 344.515L338.495 338.114C338.145 337.893 337.681 337.998 337.46 338.35L337.387 338.465Z" fill="#3A0092"/>
<path d="M335.458 341.528C335.217 341.911 335.332 342.416 335.716 342.658L340.915 345.931C341.298 346.172 341.803 346.058 342.045 345.674C342.286 345.291 342.171 344.786 341.787 344.544L336.588 341.271C336.206 341.03 335.7 341.144 335.458 341.528Z" fill="#3A0092"/>
<path d="M333.494 344.649C333.253 345.032 333.368 345.537 333.752 345.779L338.951 349.052C339.334 349.294 339.839 349.179 340.081 348.795C340.322 348.412 340.207 347.907 339.823 347.665L334.624 344.392C334.241 344.151 333.736 344.265 333.494 344.649Z" fill="#3A0092"/>
<path d="M331.532 347.768C331.29 348.151 331.405 348.657 331.789 348.898L336.988 352.171C337.371 352.413 337.877 352.297 338.118 351.914C338.359 351.531 338.244 351.026 337.86 350.785L332.661 347.511C332.278 347.27 331.771 347.384 331.532 347.768Z" fill="#3A0092"/>
<path d="M296.303 323.817L300.187 323.404L295.442 282.578L292.376 282.903L296.303 323.817Z" fill="#3A0092"/>
<path d="M294.243 313.801L300.1 313.179C301.193 313.064 302.181 313.836 302.332 314.925L307.232 350.162C307.603 352.822 305.696 355.262 303.025 355.545L300.27 355.837C297.599 356.12 295.223 354.136 295.027 351.457L292.426 315.976C292.347 314.878 293.15 313.917 294.243 313.801Z" fill="#999999"/>
<path opacity="0.24" d="M303.19 352.413L304.67 352.256L300.757 315.375L299.278 315.532L303.19 352.413Z" fill="white"/>
<path opacity="0.24" d="M300.491 352.706L301.971 352.549L298.058 315.668L296.578 315.825L300.491 352.706Z" fill="white"/>
<path opacity="0.24" d="M297.803 352.989L299.282 352.832L295.369 315.951L293.89 316.108L297.803 352.989Z" fill="white"/>
<path d="M291.512 269.333L293.443 269.128C293.952 269.075 294.424 269.322 294.572 269.723L296.574 275.119C296.613 275.224 296.628 275.336 296.617 275.448L295.928 282.798C295.888 283.236 295.471 283.599 294.944 283.655L292.905 283.872C292.37 283.929 291.882 283.653 291.758 283.224L289.727 276.17C289.698 276.068 289.691 275.963 289.706 275.858L290.532 270.151C290.593 269.728 291.002 269.387 291.512 269.333Z" fill="#3A0092"/>
<path d="M228.579 425.854H419.203C421.543 425.854 423.439 423.958 423.439 421.619V343.927C423.439 341.588 421.543 339.691 419.203 339.691H228.579C226.24 339.691 224.345 341.588 224.345 343.927V421.619C224.343 423.958 226.24 425.854 228.579 425.854Z" fill="#59B3B0"/>
<path d="M214.806 420.44H430.836C431.218 420.44 431.528 420.13 431.528 419.747V398.329C431.528 397.947 431.218 397.637 430.836 397.637H214.806C214.423 397.637 214.113 397.947 214.113 398.329V419.747C214.113 420.13 214.423 420.44 214.806 420.44Z" fill="#63CEC6"/>
<path d="M216.176 394.229H429.465C430.604 394.229 431.529 393.306 431.529 392.165V371.132C431.529 369.993 430.606 369.068 429.465 369.068H216.176C215.037 369.068 214.112 369.992 214.112 371.132V392.165C214.114 393.304 215.037 394.229 216.176 394.229Z" fill="#63CEC6"/>
<path d="M215.771 365.315H429.87C430.786 365.315 431.529 364.573 431.529 363.656V341.35C431.529 340.434 430.786 339.691 429.87 339.691H215.771C214.855 339.691 214.112 340.434 214.112 341.35V363.656C214.114 364.573 214.856 365.315 215.771 365.315Z" fill="#63CEC6"/>
<path d="M170.357 278.375L169.132 279.715C160.663 279.34 154.033 277.056 148.874 273.987C151.488 266.367 154.309 261.781 156.569 259.062C160.996 264.653 165.799 268.371 169.36 270.639C172.024 272.339 172.489 276.044 170.357 278.375Z" fill="#CECECE"/>
<path d="M137.803 255.985L150.681 233.355C152.239 245.664 156.894 254.736 162.061 261.261C159.799 263.979 156.98 268.566 154.365 276.186C141.488 268.529 137.803 255.985 137.803 255.985Z" fill="url(#paint0_linear_903_339)"/>
<path d="M131.863 429.878C138.864 429.838 145.615 429.287 150.117 428.821C145.856 426.108 136.058 420.233 128.003 418.109L122.547 418.064C122.547 418.064 120.849 420.963 120.523 427.412C121.483 428.49 124.198 429.923 131.863 429.878Z" fill="#3A0092"/>
<path d="M150.175 428.857C150.156 428.845 150.136 428.833 150.117 428.82C145.615 429.285 138.864 429.838 131.863 429.878C124.198 429.922 121.483 428.49 120.523 427.412C120.508 427.709 120.492 428.004 120.484 428.316C120.444 429.73 121.553 430.912 122.966 430.946C128.709 431.082 142.944 431.327 149.766 430.616C150.663 430.52 150.938 429.343 150.175 428.857Z" fill="#59B3B0"/>
<path d="M81.8074 430.594C81.1268 427.342 80.0608 422.642 79.364 421.465C78.271 419.614 74.9665 421.692 74.9665 421.692C74.9665 421.692 72.6349 422.929 71.6309 424.845C70.9907 426.064 69.2266 429.533 68.0311 431.888C67.8937 432.159 67.8452 432.442 67.8667 432.712L81.519 432.485C81.8263 431.931 81.9503 431.272 81.8074 430.594Z" fill="#3A0092"/>
<path d="M67.8682 432.712C67.9315 433.489 68.5851 434.163 69.4571 434.141L79.1795 433.906C80.2064 433.881 81.0676 433.302 81.5218 432.482L67.8682 432.712Z" fill="#59B3B0"/>
<path d="M81.8074 410.411C81.7104 410.81 80.3909 419.439 79.8141 423.225C79.6551 424.272 78.7589 425.047 77.7009 425.048C77.1228 425.05 76.4489 425.032 75.7414 424.977C74.4853 424.88 73.4799 423.886 73.3667 422.632C73.0715 419.357 72.6848 413.058 73.7629 410.554C75.2508 407.099 81.8074 410.411 81.8074 410.411Z" fill="#CECECE"/>
<path d="M121.099 410.826C121.852 410.763 120.999 414.741 122.341 418.539C122.644 419.395 123.33 420.044 124.237 420.009C124.826 419.986 125.522 419.939 126.227 419.846C127.286 419.706 128.099 418.837 128.142 417.768L128.554 407.717L121.099 410.826Z" fill="#CECECE"/>
<path d="M136.724 303.401C136.469 305.075 131.159 383.958 132.489 419.586C134.396 421.505 120.795 425.777 120.328 423.644C118.406 414.877 113.217 348.768 115.935 321.919C115.935 321.919 85.0391 407.859 81.6294 426.487C81.6213 426.487 72.3356 429.904 69.6577 425.466C69.6577 425.466 91.3114 317.234 105.026 297.229L136.724 303.401Z" fill="#3A0092"/>
<path d="M115.958 322.363C115.846 322.369 115.732 322.332 115.642 322.253C115.457 322.091 115.439 321.809 115.602 321.625L119.894 316.758C120.055 316.574 120.337 316.556 120.522 316.719C120.706 316.881 120.724 317.163 120.561 317.347L116.27 322.214C116.186 322.307 116.073 322.358 115.958 322.363Z" fill="#3A0092"/>
<path d="M151.568 215.507C142.759 213.679 126.545 210.945 113.822 212.365C110.9 212.691 108.671 215.131 108.657 218.07C108.488 252.156 109.268 281.07 105.216 298.875C116.595 302.71 118.712 301.826 129.534 299.659C136.798 281.736 150.085 264.906 155.002 241.646C155.002 241.646 157.635 223.16 153.843 217.241C153.252 216.319 152.504 215.701 151.568 215.507Z" fill="#999999"/>
<path d="M129.432 192.779C129.432 192.779 127.914 205.985 127.573 212.073C127.518 213.062 128.08 213.967 128.984 214.374C131.446 215.484 136.67 217.208 142.154 215.095C143.057 214.747 143.613 213.826 143.542 212.861L142.255 195.403L129.432 192.779Z" fill="#CECECE"/>
<path d="M142.993 177.533C142.993 177.533 147.731 187.041 148.279 192.132C148.828 197.222 150.099 200.478 144.25 201.811C138.4 203.144 133.275 200.462 130.318 195.516C130.318 195.516 125.692 187.898 126.473 184.64C127.254 181.382 142.993 177.533 142.993 177.533Z" fill="#CECECE"/>
<path d="M132.146 191.755L132.892 191.716C132.892 191.716 129.491 185.569 132.136 184.321C135.411 182.776 138.992 181.958 142.266 180.375C143.371 179.84 144.259 179.519 144.387 178.158C144.58 176.096 143.723 173.962 142.156 172.607C139.74 170.515 137.286 171.098 134.512 171.76C130.944 172.612 126.809 173.954 124.421 176.933C123.341 178.279 123.36 179.55 122.789 181.04C122.255 182.435 120.627 183.121 120.384 184.976C120.217 186.249 120.621 187.554 121.32 188.632C121.793 189.363 122.4 190.009 122.794 190.786C123.187 191.562 123.349 192.453 123.256 193.318C123.162 194.194 122.402 193.809 122.751 194.767C122.983 195.403 124.089 195.881 124.634 196.136C127.861 197.652 129.71 197.373 130.402 197.158C130.588 197.1 130.706 196.921 130.683 196.728L130.177 192.282C130.151 192.051 130.324 191.848 130.555 191.836L132.146 191.755Z" fill="#999999"/>
<path d="M132.377 192.678C132.377 192.678 130.441 186.549 127.745 188.434C125.05 190.321 129.551 195.321 131.803 195.439L132.377 192.678Z" fill="#CECECE"/>
<path d="M146.721 238.75L123.171 237.75C123.055 237.745 122.944 237.791 122.864 237.874L111.574 246.238C111.353 246.469 103.793 298.52 103.793 298.52C103.698 301.897 136.639 308.058 136.215 305.454L152.989 253.116C153.091 252.775 153.073 252.408 152.94 252.078L147.914 239.594C147.716 239.104 147.25 238.773 146.721 238.75Z" fill="#3A0092"/>
<path d="M152.717 216.238L147.639 239.732L141.329 238.521L146.508 214.525L151.816 215.011C152.423 215.066 152.847 215.641 152.717 216.238Z" fill="#3A0092"/>
<path d="M122.989 237.742L118.926 211.865C118.86 211.442 119.213 211.071 119.639 211.117L124.484 211.641C124.731 211.668 124.929 211.857 124.966 212.102L128.902 237.993L122.989 237.742Z" fill="#3A0092"/>
<path d="M145.815 175.639C134.635 156.929 109.143 175.771 122.265 191.341C131.086 184.795 140.941 175.233 145.815 175.639Z" fill="#3A0092"/>
<path d="M145.043 173.598C165.58 171.485 149.026 179.996 130.484 185.04C134.895 179.845 139.371 175.911 145.043 173.598Z" fill="#3A0092"/>
<path d="M136.018 272.689L136.348 327.931C136.357 329.617 137.669 331.03 139.438 331.264L163.85 334.489C168.144 335.056 171.574 331.083 170.098 327.255L156.845 292.869C156.004 290.689 156.078 288.28 157.05 286.128C158.958 279.284 161.908 273.075 165.557 267.291L136.018 272.689Z" fill="#59B3B0"/>
<path d="M161.421 275.755C160.709 275.229 159.694 275.506 159.347 276.32L156.581 282.799C156.298 283.461 156.577 284.229 157.217 284.557L157.681 284.794C158.423 285.174 159.33 284.807 159.6 284.018L161.903 277.302C162.097 276.737 161.902 276.111 161.421 275.755Z" fill="#92E0DC"/>
<path d="M230.263 245.285L247.448 243.567C247.496 243.561 247.531 243.518 247.527 243.469L247.425 242.441C247.42 242.393 247.376 242.358 247.328 242.362L230.143 244.08C230.095 244.085 230.06 244.129 230.064 244.177L230.166 245.205C230.172 245.254 230.215 245.289 230.263 245.285Z" fill="#3A0092"/>
<path d="M229.043 239.601L234.675 242.56C235.088 242.777 235.364 243.186 235.411 243.65L235.53 244.83C235.563 245.17 235.454 245.508 235.228 245.763L230.306 251.299C230.055 251.581 229.708 251.759 229.332 251.797L219.338 252.795L218.106 240.468L228.278 239.452C228.54 239.426 228.807 239.477 229.043 239.601Z" fill="#3A0092"/>
<path d="M207.024 253.964L217.602 252.906L216.369 240.58L205.791 241.638L207.024 253.964Z" fill="#3A0092"/>
<path d="M201.2 255.954L211.979 254.875C212.611 254.812 213.072 254.249 213.009 253.617L211.703 240.549C211.642 239.947 211.106 239.507 210.503 239.568L199.669 240.652L201.2 255.954Z" fill="#3A0092"/>
<path d="M193.974 261.4L204.156 260.382C205.119 260.287 205.819 259.428 205.724 258.467L203.713 238.35C203.621 237.434 202.805 236.766 201.89 236.858L191.624 237.885L193.974 261.4Z" fill="#3A0092"/>
<path d="M128.04 274.139L196.852 262.977L194.302 237.479L124.76 241.328C104.004 245.495 108.485 274.764 128.04 274.139Z" fill="#59B3B0"/>
<path d="M216.682 254.926L226.208 253.973C226.658 253.929 226.986 253.527 226.941 253.077L225.506 238.716C225.461 238.266 225.06 237.938 224.609 237.983L215.084 238.935C214.634 238.98 214.306 239.381 214.351 239.832L215.786 254.193C215.831 254.643 216.232 254.972 216.682 254.926Z" fill="#3A0092"/>
<path d="M132.121 287.818L136.057 286.23C136.503 285.807 137.231 286.188 137.134 286.795C136.797 288.905 136.592 292.182 138.092 293.943C140.422 296.679 147.31 300.392 149.534 301.074C151.965 301.819 136.167 309.136 129.041 292.815L132.121 287.818Z" fill="#CECECE"/>
<path d="M106.481 277.209C105.182 275.575 103.875 273.779 102.572 271.792C89.6767 252.118 109.794 219.928 109.794 219.928L119.448 233.821C110.224 245.243 112.867 261.034 116.65 269.602C121.601 280.817 131.794 288.222 131.794 288.222L128.852 292.996C128.849 292.996 118.034 291.751 106.481 277.209Z" fill="#CECECE"/>
<path d="M97.7522 252.724C96.4921 235.144 110.212 214.204 110.231 214.152L119.59 233.778C115.67 238.571 114.187 246.659 113.217 251.047C107.437 250.542 103.388 251.031 97.7522 252.724Z" fill="#999999"/>
<path d="M168.279 280.014C169.325 279.667 170.149 278.866 170.546 277.838C171.314 275.844 172.133 272.672 169.992 271.828C166.803 270.574 161.438 276.673 161.438 276.673L158.901 281.303C158.205 281.687 158.562 282.754 159.349 282.636C161.74 282.276 164.86 281.277 168.279 280.014Z" fill="#CECECE"/>
<defs>
<linearGradient id="paint0_linear_903_339" x1="142.917" y1="218.132" x2="158.979" y2="310.836" gradientUnits="userSpaceOnUse">
<stop stop-color="#FDF53F"/>
<stop offset="0.6645" stop-color="#E57A58"/>
<stop offset="1" stop-color="#D93C65"/>
</linearGradient>
</defs>
</svg>
