<svg width="24" height="20" viewBox="0 0 24 20" fill="none" xmlns="http://www.w3.org/2000/svg">
<path d="M24 12.0697C24 9.42969 21.95 7.28969 19.35 7.10969C18.67 3.65969 15.64 1.06969 12 1.06969C10.67 1.06969 9.43 1.42969 8.35 2.03969L9.84 3.52969C10.51 3.23969 11.23 3.06969 12 3.06969C15.04 3.06969 17.5 5.52969 17.5 8.56969V9.06969H19C20.66 9.06969 22 10.4097 22 12.0697C22 13.0597 21.52 13.9197 20.79 14.4697L22.2 15.8797C23.29 14.9597 24 13.6097 24 12.0697ZM4.41 0.929688L3 2.33969L5.77 5.10969H5.35C2.34 5.42969 0 7.97969 0 11.0697C0 14.3797 2.69 17.0697 6 17.0697H17.73L19.73 19.0697L21.14 17.6597L4.41 0.929688ZM6 15.0697C3.79 15.0697 2 13.2797 2 11.0697C2 8.85969 3.79 7.06969 6 7.06969H7.73L15.73 15.0697H6Z" fill="black"/>
</svg>
