<svg width="19" height="21" viewBox="0 0 19 21" fill="none" xmlns="http://www.w3.org/2000/svg">
<path d="M16.7917 2.19747H12.4375C12 0.989136 10.8542 0.114136 9.5 0.114136C8.14583 0.114136 7 0.989136 6.5625 2.19747H2.20833C1.0625 2.19747 0.125 3.13497 0.125 4.2808V18.8641C0.125 20.01 1.0625 20.9475 2.20833 20.9475H16.7917C17.9375 20.9475 18.875 20.01 18.875 18.8641V4.2808C18.875 3.13497 17.9375 2.19747 16.7917 2.19747ZM9.5 1.93705C9.92708 1.93705 10.2812 2.29122 10.2812 2.7183C10.2812 3.14539 9.92708 3.49955 9.5 3.49955C9.07292 3.49955 8.71875 3.14539 8.71875 2.7183C8.71875 2.29122 9.07292 1.93705 9.5 1.93705ZM16.7917 18.8641H2.20833V4.2808H16.7917V18.8641Z" fill="white"/>
<path d="M12.7083 10.5621L10.5 8.35372L4.29167 14.5516V16.7808H6.47917L12.7083 10.5621Z" fill="white"/>
<path d="M14.5521 8.72872C14.7604 8.52039 14.7604 8.19747 14.5521 7.98914L13.0833 6.52039C12.875 6.31205 12.5521 6.31205 12.3437 6.52039L11.2396 7.62455L13.4479 9.83289L14.5521 8.72872Z" fill="white"/>
</svg>
