<svg width="23" height="25" viewBox="0 0 23 25" fill="none" xmlns="http://www.w3.org/2000/svg">
<path d="M11.5 0C9.04611 0 7.05682 1.98189 7.05682 4.42667C7.05682 6.60489 8.63598 8.41562 10.7159 8.78465V11.9804H6.01136C4.71224 11.9804 3.65909 13.0297 3.65909 14.3239V16.2154C1.57915 16.5843 0 18.3951 0 20.5733C0 23.0181 1.98928 25 4.44318 25C6.89708 25 8.88636 23.0181 8.88636 20.5733C8.88636 18.3951 7.30721 16.5843 5.22727 16.2154V14.3239C5.22727 13.8925 5.57833 13.5427 6.01136 13.5427H16.9886C17.4217 13.5427 17.7727 13.8925 17.7727 14.3239V16.2154C15.6928 16.5843 14.1136 18.3951 14.1136 20.5733C14.1136 23.0181 16.1029 25 18.5568 25C21.0107 25 23 23.0181 23 20.5733C23 18.3951 21.4208 16.5843 19.3409 16.2154V14.3239C19.3409 13.0297 18.2877 11.9804 16.9886 11.9804H12.2841V8.78465C14.364 8.41562 15.9432 6.6049 15.9432 4.42667C15.9432 1.98189 13.9539 0 11.5 0ZM8.625 4.42667C8.625 2.84475 9.91216 1.56235 11.5 1.56235C13.0878 1.56235 14.375 2.84475 14.375 4.42667C14.375 6.00858 13.0878 7.29098 11.5 7.29098C9.91216 7.29098 8.625 6.00858 8.625 4.42667ZM1.56818 20.5733C1.56818 18.9914 2.85537 17.709 4.44318 17.709C6.031 17.709 7.31818 18.9914 7.31818 20.5733C7.31818 22.1553 6.031 23.4376 4.44318 23.4376C2.85537 23.4376 1.56818 22.1553 1.56818 20.5733ZM18.5568 17.709C20.1447 17.709 21.4318 18.9914 21.4318 20.5733C21.4318 22.1553 20.1447 23.4376 18.5568 23.4376C16.969 23.4376 15.6818 22.1553 15.6818 20.5733C15.6818 18.9914 16.969 17.709 18.5568 17.709Z" fill="black"/>
</svg>
