<svg width="18" height="16" viewBox="0 0 18 16" fill="none" xmlns="http://www.w3.org/2000/svg">
<path d="M13.6665 7.00833L12.4915 5.83333L15.4582 2.875L16.6332 4.05C16.5415 4.075 13.6665 7.00833 13.6665 7.00833ZM9.83317 0.5H8.1665V4.66667H9.83317V0.5ZM4.33317 7.00833L5.50817 5.83333L2.54984 2.86667L1.3665 4.05C1.45817 4.075 4.33317 7.00833 4.33317 7.00833ZM15.6665 9.66667H12.8165C12.1748 11.1333 10.6998 12.1667 8.99984 12.1667C7.29984 12.1667 5.82484 11.1333 5.18317 9.66667H2.33317V13.8333H15.6665V9.66667ZM15.6665 8C16.5832 8 17.3332 8.75 17.3332 9.66667V13.8333C17.3332 14.75 16.5832 15.5 15.6665 15.5H2.33317C1.4165 15.5 0.666504 14.75 0.666504 13.8333V9.66667C0.666504 8.75 1.4165 8 2.33317 8H6.49984C6.49984 9.38333 7.6165 10.5 8.99984 10.5C10.3832 10.5 11.4998 9.38333 11.4998 8H15.6665Z" fill="#004D71"/>
</svg>
