<svg xmlns="http://www.w3.org/2000/svg" width="24" height="25" viewBox="0 0 24 25" fill="none">
  <path d="M10 8.33896L6.75 11.589C7.06 11.709 7.31 11.859 7.52 11.979C7.89 12.209 8.11 12.339 8.67 12.339C9.23 12.339 9.45 12.209 9.82 11.979C10.28 11.709 10.9 11.339 12.01 11.339C13.12 11.339 13.74 11.709 14.19 11.979C14.56 12.199 14.79 12.339 15.34 12.339C15.89 12.339 16.12 12.209 16.49 11.979C16.61 11.909 16.75 11.829 16.9 11.749L10.48 5.33896C8.93 3.78896 7.5 3.32896 5 3.33896V5.83896C6.82 5.82896 7.89 6.22896 9 7.33896L10 8.33896ZM5.35 15.839C5.9 15.839 6.13 15.979 6.5 16.199C6.95 16.469 7.57 16.839 8.68 16.839C9.79 16.839 10.41 16.469 10.86 16.199C11.23 15.969 11.45 15.839 12.01 15.839C12.56 15.839 12.79 15.979 13.16 16.199C13.61 16.469 14.23 16.839 15.34 16.839C16.45 16.839 17.07 16.469 17.52 16.199C17.89 15.969 18.11 15.839 18.67 15.839C19.22 15.839 19.45 15.979 19.82 16.199C20.27 16.469 20.88 16.829 21.98 16.839V14.839C21.43 14.839 21.2 14.699 20.83 14.479C20.38 14.209 19.76 13.839 18.65 13.839C17.54 13.839 16.92 14.209 16.47 14.479C16.1 14.709 15.87 14.839 15.32 14.839C14.77 14.839 14.54 14.699 14.17 14.479C13.72 14.209 13.1 13.839 11.99 13.839C10.88 13.839 10.26 14.209 9.81 14.479C9.44 14.709 9.22 14.839 8.66 14.839C8.11 14.839 7.88 14.699 7.51 14.479C7.06 14.209 6.44 13.839 5.33 13.839C4.22 13.839 3.6 14.209 3.15 14.479C2.78 14.709 2.56 14.839 2 14.839V16.839C3.11 16.839 3.73 16.469 4.2 16.199C4.57 15.969 4.8 15.839 5.35 15.839ZM18.67 18.339C17.56 18.339 16.94 18.709 16.49 18.979C16.12 19.209 15.89 19.339 15.34 19.339C14.79 19.339 14.56 19.199 14.19 18.979C13.74 18.709 13.12 18.339 12.01 18.339C10.9 18.339 10.28 18.709 9.82 18.979C9.45 19.209 9.23 19.339 8.67 19.339C8.11 19.339 7.89 19.209 7.52 18.979C7.07 18.709 6.45 18.339 5.34 18.339C4.23 18.339 3.61 18.709 3.15 18.979C2.78 19.209 2.56 19.339 2 19.339V21.339C3.11 21.339 3.73 20.969 4.19 20.699C4.56 20.469 4.79 20.339 5.34 20.339C5.89 20.339 6.12 20.469 6.49 20.699C6.94 20.969 7.56 21.339 8.67 21.339C9.78 21.339 10.4 20.969 10.86 20.699C11.23 20.469 11.45 20.339 12.01 20.339C12.56 20.339 12.79 20.479 13.16 20.699C13.61 20.969 14.23 21.339 15.34 21.339C16.45 21.339 17.06 20.969 17.52 20.699C17.89 20.469 18.11 20.339 18.67 20.339C19.22 20.339 19.45 20.479 19.82 20.699C20.27 20.969 20.89 21.339 22 21.339V19.339C21.44 19.339 21.22 19.209 20.85 18.979C20.4 18.709 19.78 18.339 18.67 18.339Z" fill="#004D71"/>
  <path d="M16.5 8.33896C17.8807 8.33896 19 7.21968 19 5.83896C19 4.45825 17.8807 3.33896 16.5 3.33896C15.1193 3.33896 14 4.45825 14 5.83896C14 7.21968 15.1193 8.33896 16.5 8.33896Z" fill="#004D71"/>
</svg>