<svg width="150" height="150" viewBox="0 0 150 150" fill="none" xmlns="http://www.w3.org/2000/svg">
<path d="M99.3999 82.2516L86.1418 95.5097L123.618 132.986L136.876 119.728L99.3999 82.2516Z" fill="#004D71"/>
<path d="M109.375 63.1855C121.437 63.1855 131.25 53.373 131.25 41.3105C131.25 37.6855 130.25 34.3105 128.687 31.3105L111.812 48.1855L102.5 38.873L119.375 21.998C116.375 20.4355 113 19.4355 109.375 19.4355C97.3125 19.4355 87.5 29.248 87.5 41.3105C87.5 43.873 88 46.3105 88.8125 48.5605L77.25 60.123L66.125 48.998L70.5625 44.5605L61.75 35.748L75 22.498C67.6875 15.1855 55.8125 15.1855 48.5 22.498L26.375 44.623L35.1875 53.4355H17.5625L13.125 57.873L35.25 79.998L39.6875 75.5605V57.873L48.5 66.6855L52.9375 62.248L64.0625 73.373L17.75 119.686L31 132.936L102.125 61.873C104.375 62.6855 106.812 63.1855 109.375 63.1855Z" fill="#004D71"/>
</svg>
