<svg width="14" height="18" viewBox="0 0 14 18" fill="none" xmlns="http://www.w3.org/2000/svg">
<path d="M0.333496 12.3337V17.3337H13.6668V12.3337C13.6668 11.417 12.9168 10.667 12.0002 10.667H2.00016C1.0835 10.667 0.333496 11.417 0.333496 12.3337ZM12.0002 14.0003H2.00016V12.3337H12.0002V14.0003ZM7.00016 0.666992C4.70016 0.666992 2.8335 2.53366 2.8335 4.83366L7.00016 10.667L11.1668 4.83366C11.1668 2.53366 9.30016 0.666992 7.00016 0.666992ZM7.00016 8.16699L4.50016 4.83366C4.50016 3.45033 5.61683 2.33366 7.00016 2.33366C8.3835 2.33366 9.50016 3.45033 9.50016 4.83366L7.00016 8.16699Z" fill="#004D71"/>
</svg>
