<?xml version="1.0" encoding="UTF-8"?><svg id="Layer_1" xmlns="http://www.w3.org/2000/svg" viewBox="0 0 100 100"><path d="m95.81,96.11h-2.98v-27.2h-24.27v27.15h-3.05v-27.16H12.47v27.18h-3.05v-27.23c-1.35,0-2.63,0-3.91,0-.73,0-1.46.03-2.18-.01-1.21-.08-1.82-1.13-1.31-2.23.14-.31.33-.61.5-.91,4.08-7.26,8.16-14.52,12.24-21.78.18-.32.35-.65.55-1.03-.34-.15-.62-.27-.9-.4-2.53-1.17-3.94-3.96-3.37-6.65.59-2.82,2.91-4.8,5.74-4.87,1.48-.03,2.97-.05,4.45,0,.63.02.95-.2,1.24-.74,2.14-3.86,4.34-7.7,6.47-11.57.54-.97,1.2-1.38,2.33-1.38,20.78.03,41.57.02,62.35.02,1.74,0,2.18.44,2.18,2.18,0,25.21,0,50.41,0,75.62,0,.31,0,.62,0,1.02Zm-26.28-36.36c-.5,0-.84,0-1.17,0-8.02,0-16.04.01-24.06,0-3.24,0-5.86-2.45-6.08-5.59-.22-3.18,1.96-5.96,5.16-6.44,1.08-.16,2.21-.11,3.31-.07.67.03,1-.22,1.31-.79,4.79-8.56,9.61-17.11,14.42-25.66.14-.25.27-.52.45-.87-1.17,0-2.19.04-3.19-.02-.66-.04-1,.21-1.32.78-3.1,5.57-6.23,11.11-9.36,16.67-.15.27-.3.56-.4.85-1.12,3.06-3.11,4.46-6.38,4.46-7.52,0-15.03,0-22.55-.01-.67,0-1.06.16-1.41.78-3.93,7.05-7.9,14.08-11.86,21.12-.13.24-.26.48-.45.85h1.23c19.26,0,38.53,0,57.79,0,.25,0,.51.03.76-.01.19-.04.45-.12.54-.27,1.08-1.87,2.13-3.76,3.27-5.78Zm5.41-9.62c5.61-9.98,11.15-19.83,16.76-29.8-.45,0-.73,0-1.01,0-7.8,0-15.6.01-23.4-.02-.69,0-1.05.21-1.39.82-4.77,8.53-9.57,17.05-14.36,25.58-.15.26-.27.54-.46.92.45,0,.79,0,1.13,0,5.68,0,11.37.03,17.05-.02,2.26-.02,4.16.62,5.68,2.53Zm-27.13-16.47c2.52-4.48,4.97-8.84,7.47-13.29-.28-.02-.43-.04-.57-.04-7.51,0-15.03,0-22.54.02-.34,0-.82.3-.99.6-1.63,2.81-3.21,5.65-4.8,8.48-.26.46-.52.91-.85,1.51.51,0,.85,0,1.18,0,5.05,0,10.1.04,15.15-.02,2.4-.03,4.4.66,5.95,2.74Zm44.91,32.12v-27.44c-5.21,9.26-10.3,18.3-15.43,27.44h15.43Zm.05-40.81c-.06-.01-.12-.03-.17-.04-.2.35-.4.7-.6,1.05-5.01,8.9-10.02,17.8-15.01,26.72-.49.87-.77,1.85-1.21,2.75-.37.76-.78,1.5-1.23,2.22-1.66,2.65-3.34,5.29-5.16,8.16,1.44,0,2.53-.04,3.62.02.59.03.89-.2,1.17-.7,6.08-10.83,12.17-21.66,18.25-32.49.16-.29.32-.64.32-.96.03-2.24.01-4.48.01-6.72Zm-55.35,9.01c-1.59,0-3.1,0-4.62,0-5.21,0-10.41,0-15.62,0-1.87,0-3.22,1.25-3.25,2.97-.03,1.76,1.33,3.09,3.23,3.09,6.56,0,13.13,0,19.69,0,.17,0,.35-.03.54-.04-.96-2.74-.96-3.38.03-6.02Zm27.36,16.68c-7.01,0-13.86-.01-20.71.01-1.05,0-1.87.56-2.41,1.45-1.25,2.06.23,4.58,2.72,4.59,6.56.02,13.13,0,19.69,0,.2,0,.4-.02.69-.04-1.05-2.03-1.04-3.97.02-6.01Zm-22.05-16.68c-1.66.01-3.01,1.36-3.02,3.01,0,1.69,1.39,3.07,3.08,3.04,1.65-.03,2.98-1.4,2.97-3.06-.01-1.64-1.4-3-3.04-2.99Zm27.28,22.73c1.65.01,3.02-1.33,3.05-2.98.03-1.64-1.32-3.04-2.96-3.07-1.7-.03-3.1,1.34-3.1,3.03,0,1.65,1.35,3.01,3.01,3.02Z"/><path d="m60.75,44.3c-.08,0-.17-.02-.24-.06l-2.64-1.48c-.12-.06-.2-.17-.24-.3s-.02-.26.05-.38l5.97-10.61c.06-.12.17-.2.3-.24.04-.01.09-.02.13-.02.08,0,.17.02.25.06l2.64,1.48c.24.13.33.44.19.68l-5.96,10.6c-.09.16-.26.25-.44.25Z"/><path d="m64.08,31.72c.91.51,1.73.97,2.64,1.48-2,3.55-3.96,7.04-5.96,10.6-.9-.51-1.74-.98-2.64-1.48,2-3.55,3.95-7.02,5.97-10.61Z"/><path d="m77.43,36.22c-.08,0-.17-.02-.24-.06l-2.64-1.48c-.12-.07-.2-.17-.24-.3-.04-.13-.02-.26.05-.38l3.98-7.07c.07-.12.17-.2.3-.24.04-.01.09-.02.13-.02.09,0,.17.02.25.06l2.64,1.49c.24.14.33.44.19.68l-3.98,7.07c-.09.16-.26.25-.44.25Z"/><path d="m77.43,35.72c-.89-.5-1.7-.95-2.64-1.48,1.32-2.34,2.62-4.66,3.98-7.07.88.5,1.72.97,2.64,1.49-1.34,2.37-2.64,4.69-3.98,7.07Z"/><path d="m39.62,29.13c-.08,0-.17-.02-.24-.06l-2.64-1.47c-.12-.06-.2-.17-.24-.3-.04-.13-.02-.27.05-.38l2.93-5.21c.09-.16.26-.25.44-.25.08,0,.17.02.24.06l2.64,1.47c.12.06.2.17.24.3s.02.26-.05.38l-2.93,5.21c-.09.16-.26.25-.44.25Z"/><path d="m42.55,23.42c-1,1.78-1.94,3.45-2.93,5.21-.88-.49-1.71-.96-2.64-1.47.98-1.74,1.93-3.43,2.93-5.21.89.5,1.73.96,2.64,1.47Z"/></svg>