<svg width="20" height="20" viewBox="0 0 20 20" fill="none" xmlns="http://www.w3.org/2000/svg">
<path d="M9.99902 0C4.47902 0 -0.000976562 4.48 -0.000976562 10C-0.000976562 15.52 4.47902 20 9.99902 20C15.519 20 19.999 15.52 19.999 10C19.999 4.48 15.519 0 9.99902 0ZM13.999 11H10.999V14C10.999 14.55 10.549 15 9.99902 15C9.44902 15 8.99902 14.55 8.99902 14V11H5.99902C5.44902 11 4.99902 10.55 4.99902 10C4.99902 9.45 5.44902 9 5.99902 9H8.99902V6C8.99902 5.45 9.44902 5 9.99902 5C10.549 5 10.999 5.45 10.999 6V9H13.999C14.549 9 14.999 9.45 14.999 10C14.999 10.55 14.549 11 13.999 11Z" fill="#00344D"/>
</svg>
