<svg width="101" height="100" viewBox="0 0 101 100" fill="none" xmlns="http://www.w3.org/2000/svg">
<g id="shower">
<path id="Vector" d="M37.8327 70.8333C37.8327 73.125 35.9577 75 33.666 75C31.3743 75 29.4993 73.125 29.4993 70.8333C29.4993 68.5417 31.3743 66.6667 33.666 66.6667C35.9577 66.6667 37.8327 68.5417 37.8327 70.8333ZM50.3327 66.6667C48.041 66.6667 46.166 68.5417 46.166 70.8333C46.166 73.125 48.041 75 50.3327 75C52.6243 75 54.4993 73.125 54.4993 70.8333C54.4993 68.5417 52.6243 66.6667 50.3327 66.6667ZM66.9993 66.6667C64.7077 66.6667 62.8327 68.5417 62.8327 70.8333C62.8327 73.125 64.7077 75 66.9993 75C69.291 75 71.166 73.125 71.166 70.8333C71.166 68.5417 69.291 66.6667 66.9993 66.6667ZM79.4993 50V58.3333H21.166V50C21.166 35.2917 32.041 23.2083 46.166 21.1667V12.5H54.4993V21.1667C68.6243 23.2083 79.4993 35.2917 79.4993 50ZM71.166 50C71.166 38.5 61.8327 29.1667 50.3327 29.1667C38.8327 29.1667 29.4993 38.5 29.4993 50H71.166ZM33.666 79.1667C31.3743 79.1667 29.4993 81.0417 29.4993 83.3333C29.4993 85.625 31.3743 87.5 33.666 87.5C35.9577 87.5 37.8327 85.625 37.8327 83.3333C37.8327 81.0417 35.9577 79.1667 33.666 79.1667ZM50.3327 79.1667C48.041 79.1667 46.166 81.0417 46.166 83.3333C46.166 85.625 48.041 87.5 50.3327 87.5C52.6243 87.5 54.4993 85.625 54.4993 83.3333C54.4993 81.0417 52.6243 79.1667 50.3327 79.1667ZM66.9993 79.1667C64.7077 79.1667 62.8327 81.0417 62.8327 83.3333C62.8327 85.625 64.7077 87.5 66.9993 87.5C69.291 87.5 71.166 85.625 71.166 83.3333C71.166 81.0417 69.291 79.1667 66.9993 79.1667Z" fill="#004D71"/>
</g>
</svg>
