<svg width="113" height="113" viewBox="0 0 113 113" fill="none" xmlns="http://www.w3.org/2000/svg">
<g filter="url(#filter0_d_1205_17374)">
<rect x="21.5" y="21.5" width="70" height="70" rx="8" fill="white" shape-rendering="crispEdges"/>
<path d="M41.5 43.5C41.5 42.3954 42.3954 41.5 43.5 41.5H69.5C70.6046 41.5 71.5 42.3954 71.5 43.5V69.5C71.5 70.6046 70.6046 71.5 69.5 71.5H43.5C42.3954 71.5 41.5 70.6046 41.5 69.5V43.5Z" stroke="#004D71" stroke-width="2" stroke-linecap="round" stroke-linejoin="round"/>
<path d="M58.5 49.8332C58.5 50.9378 57.6046 51.8332 56.5 51.8332C55.3954 51.8332 54.5 50.9378 54.5 49.8332C54.5 48.7287 55.3954 47.8332 56.5 47.8332C57.6046 47.8332 58.5 48.7287 58.5 49.8332Z" fill="#004D71" stroke="#004D71"/>
<path d="M56.5 56.5V63.1667" stroke="#004D71" stroke-width="2" stroke-linecap="round" stroke-linejoin="round"/>
</g>
<defs>
<filter id="filter0_d_1205_17374" x="0.5" y="0.5" width="112" height="112" filterUnits="userSpaceOnUse" color-interpolation-filters="sRGB">
<feFlood flood-opacity="0" result="BackgroundImageFix"/>
<feColorMatrix in="SourceAlpha" type="matrix" values="0 0 0 0 0 0 0 0 0 0 0 0 0 0 0 0 0 0 127 0" result="hardAlpha"/>
<feOffset/>
<feGaussianBlur stdDeviation="10.5"/>
<feComposite in2="hardAlpha" operator="out"/>
<feColorMatrix type="matrix" values="0 0 0 0 0 0 0 0 0 0 0 0 0 0 0 0 0 0 0.11 0"/>
<feBlend mode="normal" in2="BackgroundImageFix" result="effect1_dropShadow_1205_17374"/>
<feBlend mode="normal" in="SourceGraphic" in2="effect1_dropShadow_1205_17374" result="shape"/>
</filter>
</defs>
</svg>
