<svg width="21" height="21" viewBox="0 0 21 21" fill="none" xmlns="http://www.w3.org/2000/svg">
<path d="M9.45833 6.33805V9.46305H6.33333V11.5464H9.45833V14.6714H11.5417V11.5464H14.6667V9.46305H11.5417V6.33805H9.45833ZM11.5417 0.140137V3.29639C15.0729 3.8068 17.7917 6.82764 17.7917 10.5047C17.7917 11.4422 17.6042 12.3276 17.2917 13.1506L20 14.7443C20.5833 13.4526 20.9167 12.0151 20.9167 10.5047C20.9167 5.10889 16.8021 0.66097 11.5417 0.140137ZM10.5 17.7964C6.46875 17.7964 3.20833 14.536 3.20833 10.5047C3.20833 6.82764 5.92708 3.8068 9.45833 3.29639V0.140137C4.1875 0.66097 0.0833321 5.09847 0.0833321 10.5047C0.0833321 16.2547 4.73958 20.9214 10.4896 20.9214C13.9375 20.9214 16.9896 19.2443 18.8854 16.661L16.1771 15.0672C14.8437 16.7339 12.8021 17.7964 10.5 17.7964Z" fill="black"/>
</svg>
