<svg width="22" height="22" viewBox="0 0 22 22" fill="none" xmlns="http://www.w3.org/2000/svg">
<path d="M11 19.25C15.5563 19.25 19.25 15.5563 19.25 11C19.25 6.44365 15.5563 2.75 11 2.75C6.44365 2.75 2.75 6.44365 2.75 11C2.75 15.5563 6.44365 19.25 11 19.25Z" stroke="#479491" stroke-width="2" stroke-miterlimit="10" stroke-linecap="round" stroke-linejoin="round"/>
<path d="M14.4571 9.87379C14.8476 9.48327 14.8476 8.8501 14.4571 8.45958C14.0666 8.06906 13.4334 8.06906 13.0429 8.45958L14.4571 9.87379ZM10.0833 12.8334L9.37623 13.5405C9.76675 13.931 10.3999 13.931 10.7904 13.5405L10.0833 12.8334ZM8.95711 10.2929C8.56658 9.90239 7.93342 9.90239 7.54289 10.2929C7.15237 10.6834 7.15237 11.3166 7.54289 11.7071L8.95711 10.2929ZM13.0429 8.45958L9.37623 12.1262L10.7904 13.5405L14.4571 9.87379L13.0429 8.45958ZM10.7904 12.1262L8.95711 10.2929L7.54289 11.7071L9.37623 13.5405L10.7904 12.1262Z" fill="#479491"/>
</svg>

