<svg xmlns="http://www.w3.org/2000/svg" width="85" height="95" viewBox="0 0 85 95" fill="none">
  <g clip-path="url(#clip0_1758_11227)">
    <path d="M80.6118 20.5281L46.9694 1.18342C45.6233 0.406272 44.0957 -0.00292969 42.5406 -0.00292969C40.9856 -0.00292969 39.458 0.406272 38.1119 1.18342L4.46941 20.4876C3.11409 21.2591 1.987 22.3743 1.20217 23.7202C0.417342 25.0662 0.00263054 26.5952 0 28.1525L0 66.8014C0.00344404 68.3537 0.414095 69.8781 1.19109 71.2229C1.96809 72.5676 3.08434 73.6858 4.42878 74.4663L38.0712 93.811C39.4173 94.5881 40.9449 94.9973 42.5 94.9973C44.0551 94.9973 45.5827 94.5881 46.9288 93.811L80.5712 74.5068C81.9157 73.7264 83.0319 72.6082 83.8089 71.2634C84.5859 69.9187 84.9966 68.3943 85 66.8419V28.1525C85.0211 26.6056 84.6249 25.0815 83.8528 23.74C83.0808 22.3986 81.9613 21.2892 80.6118 20.5281ZM54.4455 61.5292C54.8924 68.383 55.1362 73.8174 53.3891 79.2923C52.287 82.6713 50.5495 85.8095 48.2696 88.5388C47.3718 89.624 46.4084 90.6533 45.3848 91.621C43.3939 93.4865 40.2247 93.2432 37.99 91.986L21.6969 82.6584L46.8069 34.6007C46.8673 34.4522 46.8694 34.2864 46.8127 34.1364C46.7561 33.9864 46.6448 33.8633 46.5011 33.7916C46.3575 33.7199 46.1921 33.705 46.0378 33.7497C45.8836 33.7944 45.752 33.8956 45.6692 34.0329L20.5999 82.0095L4.83509 72.9657C4.22921 72.602 3.66982 72.1663 3.16922 71.668C3.00669 71.5057 2.8848 71.3435 2.72228 71.1813C2.57424 71.0156 2.43845 70.8394 2.31597 70.6541L11.4173 58.812L23.7285 42.7928L39.3308 22.4342L39.4527 22.272L39.4933 22.2315C41.5909 20.4444 44.3128 19.5604 47.0623 19.7733C49.8119 19.9861 52.3647 21.2785 54.1611 23.367L60.4589 30.7074C61.0277 31.3563 62.8561 32.208 63.9125 32.573L65.1314 33.0191C61.3528 35.4524 57.7772 38.2101 56.0707 42.5089C53.6329 48.5922 54.0392 55.1621 54.4455 61.5292Z" fill="#004D71"/>
    <path d="M50.4233 28.3556C50.4233 27.9254 50.2521 27.5127 49.9473 27.2085C49.6425 26.9043 49.2291 26.7334 48.7981 26.7334C48.3671 26.7334 47.9537 26.9043 47.6489 27.2085C47.3441 27.5127 47.1729 27.9254 47.1729 28.3556V28.5989C47.1832 28.8014 47.2336 28.9998 47.3209 29.1829C47.4083 29.3659 47.531 29.5299 47.6819 29.6655C47.8329 29.8012 48.0092 29.9057 48.2008 29.9732C48.3923 30.0407 48.5953 30.0698 48.7981 30.0589C49.2181 30.0687 49.6249 29.9121 49.9295 29.6233C50.2341 29.3345 50.4116 28.937 50.4233 28.5178V28.3556Z" fill="#004D71"/>
  </g>
  <defs>
    <clipPath id="clip0_1758_11227">
      <rect width="85" height="95" fill="white"/>
    </clipPath>
  </defs>
</svg>