<svg width="40" height="45" viewBox="0 0 40 45" fill="none" xmlns="http://www.w3.org/2000/svg">
<g clip-path="url(#clip0_1_260)">
<path d="M37.935 9.6808L22.1032 0.558238C21.4698 0.19175 20.7509 -0.0012207 20.0191 -0.0012207C19.2873 -0.0012207 18.5685 0.19175 17.935 0.558238L2.10325 9.66167C1.46546 10.0255 0.935058 10.5514 0.565727 11.1861C0.196396 11.8208 0.0012379 12.5419 0 13.2763L0 31.5023C0.00162072 32.2343 0.194868 32.9532 0.560513 33.5874C0.926159 34.2215 1.45145 34.7488 2.08413 35.1169L17.9159 44.2394C18.5493 44.6059 19.2682 44.7989 20 44.7989C20.7318 44.7989 21.4507 44.6059 22.0841 44.2394L37.9159 35.136C38.5485 34.768 39.0738 34.2406 39.4395 33.6065C39.8051 32.9723 39.9984 32.2535 40 31.5214V13.2763C40.0099 12.5468 39.8235 11.8281 39.4602 11.1955C39.0968 10.5628 38.57 10.0397 37.935 9.6808ZM25.6214 29.016C25.8317 32.2481 25.9465 34.8109 25.1243 37.3927C24.6056 38.9862 23.788 40.4661 22.7151 41.7532C22.2926 42.2649 21.8393 42.7503 21.3576 43.2067C20.4206 44.0864 18.9293 43.9717 17.8776 43.3788L10.2103 38.9801L22.0268 16.3171C22.0552 16.2471 22.0562 16.1689 22.0295 16.0982C22.0029 16.0274 21.9505 15.9694 21.8829 15.9356C21.8153 15.9018 21.7374 15.8947 21.6649 15.9158C21.5923 15.9369 21.5303 15.9846 21.4914 16.0494L9.69407 38.6741L2.27533 34.4093C1.99021 34.2378 1.72697 34.0322 1.4914 33.7973C1.41491 33.7208 1.35755 33.6443 1.28107 33.5678C1.21141 33.4896 1.14751 33.4065 1.08987 33.3191L5.37285 27.7347L11.1663 20.1804L18.5086 10.5797L18.566 10.5032L18.5851 10.484C19.5722 9.6413 20.8531 9.22443 22.147 9.32481C23.4409 9.42519 24.6422 10.0346 25.4876 11.0195L28.4512 14.4811C28.7189 14.7871 29.5793 15.1888 30.0765 15.3609L30.6501 15.5713C28.8719 16.7188 27.1893 18.0192 26.3862 20.0465C25.239 22.9152 25.4302 26.0134 25.6214 29.016Z" fill="white"/>
<path d="M23.7285 13.3721C23.7285 13.1692 23.648 12.9746 23.5045 12.8312C23.3611 12.6877 23.1666 12.6071 22.9637 12.6071C22.7609 12.6071 22.5664 12.6877 22.4229 12.8312C22.2795 12.9746 22.1989 13.1692 22.1989 13.3721V13.4869C22.2038 13.5823 22.2275 13.6759 22.2686 13.7622C22.3097 13.8485 22.3674 13.9259 22.4385 13.9899C22.5095 14.0538 22.5925 14.1031 22.6826 14.135C22.7728 14.1668 22.8683 14.1805 22.9637 14.1754C23.1614 14.18 23.3528 14.1061 23.4961 13.9699C23.6395 13.8337 23.723 13.6463 23.7285 13.4486V13.3721Z" fill="white"/>
</g>
<defs>
<clipPath id="clip0_1_260">
<rect width="40" height="44.8" fill="white"/>
</clipPath>
</defs>
</svg>
