<svg width="30" height="30" viewBox="0 0 30 30" fill="none" xmlns="http://www.w3.org/2000/svg">
<path id="Vector" d="M23.3333 13.3333V0H6.66667V6.66667H0V30H13.3333V23.3333H16.6667V30H30V13.3333H23.3333ZM6.66667 26.6667H3.33333V23.3333H6.66667V26.6667ZM6.66667 20H3.33333V16.6667H6.66667V20ZM6.66667 13.3333H3.33333V10H6.66667V13.3333ZM13.3333 20H10V16.6667H13.3333V20ZM13.3333 13.3333H10V10H13.3333V13.3333ZM13.3333 6.66667H10V3.33333H13.3333V6.66667ZM20 20H16.6667V16.6667H20V20ZM20 13.3333H16.6667V10H20V13.3333ZM20 6.66667H16.6667V3.33333H20V6.66667ZM26.6667 26.6667H23.3333V23.3333H26.6667V26.6667ZM26.6667 20H23.3333V16.6667H26.6667V20Z" fill="#232323"/>
</svg>
