<svg width="42" height="31" viewBox="0 0 42 31" fill="none" xmlns="http://www.w3.org/2000/svg">
<path d="M32.7162 11.7885L32.7829 12.1707L33.1697 12.201C37.3275 12.5259 40.6891 16.4118 40.6891 21.3125C40.6891 22.5269 40.4772 23.7282 40.0665 24.8475C39.6558 25.9668 39.0552 26.9801 38.3015 27.8311C37.5478 28.6819 36.6565 29.3531 35.6801 29.8097C34.7039 30.2661 33.6602 30.5 32.608 30.5H10.2973C7.71979 30.5 5.23362 29.3446 3.39028 27.2636C1.5452 25.1806 0.5 22.3438 0.5 19.375C0.5 13.5948 4.37035 8.90855 9.24132 8.32394L9.51871 8.29064L9.63575 8.03696C11.7135 3.5333 15.8615 0.5 20.5945 0.5C26.5525 0.5 31.5825 5.29497 32.7162 11.7885ZM9.4845 11.1865L9.48414 11.1865C5.69991 11.6284 2.93242 15.2013 2.93242 19.375C2.93242 21.5448 3.69537 23.6361 5.06881 25.1866C6.44399 26.7391 8.32307 27.625 10.2973 27.625H32.608C34.1271 27.625 35.5696 26.9432 36.6229 25.7541C37.6745 24.5669 38.2567 22.9684 38.2567 21.3125C38.2567 18.1012 36.0115 15.2966 33.024 15.079C33.0233 15.0789 33.0225 15.0789 33.0217 15.0788L30.7848 14.8972L30.3374 12.3716C30.3374 12.3715 30.3374 12.3715 30.3374 12.3714C29.4277 7.19697 25.3758 3.375 20.5945 3.375C16.8383 3.375 13.4835 5.72186 11.7828 9.4194C11.7827 9.41976 11.7825 9.42012 11.7823 9.42048L11.0434 11.0055L9.4845 11.1865ZM18.606 17.4375V16.9375H18.106H14.8405L20.5945 10.4416L26.3486 16.9375H23.0831H22.5831V17.4375V22.75H18.606V17.4375Z" fill="#E2E2E2" stroke="#EEEEEE"/>
</svg>
