<svg width="33" height="37" viewBox="0 0 33 37" fill="none" xmlns="http://www.w3.org/2000/svg">
<path fill-rule="evenodd" clip-rule="evenodd" d="M22 0.00195312H6.61204C5.7217 0.00195312 5 0.807805 5 1.80195V34.202C5 35.1961 5.7217 36.002 6.61204 36.002H30.2553C31.1457 36.002 31.8674 35.1961 31.8674 34.202V10.6587L22 0.00195312Z" fill="#E8EAEE"/>
<path d="M24.9624 10.657L31.9922 10.6548L22 0.00390625L21.9648 7.46175C21.9564 9.22704 23.2985 10.6575 24.9624 10.657Z" fill="#AAAFBB"/>
<rect y="15" width="24" height="15" rx="3" fill="#7EB457"/>
<path d="M5.64035 26.12C5.18035 26.12 4.76369 26.0467 4.39035 25.9C4.02368 25.7467 3.70702 25.52 3.44035 25.22C3.18035 24.92 2.98035 24.55 2.84035 24.11C2.70035 23.6633 2.63035 23.1467 2.63035 22.56C2.63035 21.9733 2.70035 21.4533 2.84035 21C2.98035 20.54 3.18035 20.1567 3.44035 19.85C3.70702 19.5367 4.02368 19.3 4.39035 19.14C4.76369 18.98 5.18035 18.9 5.64035 18.9C6.26702 18.9 6.78702 19.0333 7.20035 19.3C7.61369 19.5667 7.94369 19.97 8.19035 20.51L7.06035 21.11C6.96035 20.7967 6.79702 20.5467 6.57035 20.36C6.34369 20.1667 6.03369 20.07 5.64035 20.07C5.14702 20.07 4.75369 20.2367 4.46035 20.57C4.17368 20.9033 4.03035 21.37 4.03035 21.97V23.07C4.03035 23.6767 4.17368 24.1433 4.46035 24.47C4.75369 24.79 5.14702 24.95 5.64035 24.95C6.03369 24.95 6.35369 24.8433 6.60035 24.63C6.85369 24.4167 7.03702 24.1533 7.15035 23.84L8.22035 24.47C7.96702 24.99 7.63035 25.3967 7.21035 25.69C6.79035 25.9767 6.26702 26.12 5.64035 26.12ZM11.5164 26.12C10.9164 26.12 10.4064 26.0133 9.98637 25.8C9.57303 25.5867 9.21637 25.3067 8.91637 24.96L9.80637 24.1C10.0464 24.38 10.313 24.5933 10.6064 24.74C10.9064 24.8867 11.2364 24.96 11.5964 24.96C12.003 24.96 12.3097 24.8733 12.5164 24.7C12.723 24.52 12.8264 24.28 12.8264 23.98C12.8264 23.7467 12.7597 23.5567 12.6264 23.41C12.493 23.2633 12.243 23.1567 11.8764 23.09L11.2164 22.99C9.82303 22.77 9.12637 22.0933 9.12637 20.96C9.12637 20.6467 9.18303 20.3633 9.29637 20.11C9.41637 19.8567 9.58637 19.64 9.80637 19.46C10.0264 19.28 10.2897 19.1433 10.5964 19.05C10.9097 18.95 11.263 18.9 11.6564 18.9C12.183 18.9 12.643 18.9867 13.0364 19.16C13.4297 19.3333 13.7664 19.59 14.0464 19.93L13.1464 20.78C12.973 20.5667 12.763 20.3933 12.5164 20.26C12.2697 20.1267 11.9597 20.06 11.5864 20.06C11.2064 20.06 10.9197 20.1333 10.7264 20.28C10.5397 20.42 10.4464 20.62 10.4464 20.88C10.4464 21.1467 10.523 21.3433 10.6764 21.47C10.8297 21.5967 11.0764 21.69 11.4164 21.75L12.0664 21.87C12.773 21.9967 13.293 22.2233 13.6264 22.55C13.9664 22.87 14.1364 23.32 14.1364 23.9C14.1364 24.2333 14.0764 24.5367 13.9564 24.81C13.843 25.0767 13.673 25.31 13.4464 25.51C13.2264 25.7033 12.953 25.8533 12.6264 25.96C12.3064 26.0667 11.9364 26.12 11.5164 26.12ZM16.9527 26L14.6727 19.02H16.0227L17.0927 22.42L17.7127 24.74H17.7427L18.3527 22.42L19.4227 19.02H20.7327L18.4527 26H16.9527Z" fill="white"/>
</svg>
