<svg width="113" height="113" viewBox="0 0 113 113" fill="none" xmlns="http://www.w3.org/2000/svg">
<g filter="url(#filter0_d_1131_17910)">
<rect x="21.5" y="21.5" width="70" height="70" rx="8" fill="white" shape-rendering="crispEdges"/>
<path d="M72.3773 67.3333L57.9436 42.3333C57.3021 41.2222 55.6983 41.2222 55.0568 42.3333L40.6231 67.3333C39.9816 68.4444 40.7835 69.8333 42.0665 69.8333H70.934C72.217 69.8333 73.0188 68.4444 72.3773 67.3333Z" stroke="#D90000" stroke-width="2" stroke-linecap="round" stroke-linejoin="round"/>
<path d="M58.5 63.1666C58.5 64.2711 57.6046 65.1666 56.5 65.1666C55.3954 65.1666 54.5 64.2711 54.5 63.1666C54.5 62.062 55.3954 61.1666 56.5 61.1666C57.6046 61.1666 58.5 62.062 58.5 63.1666Z" fill="#D90000" stroke="#D90000"/>
<path d="M56.5 56.5L56.5 51.5" stroke="#D90000" stroke-width="2" stroke-linecap="round" stroke-linejoin="round"/>
</g>
<defs>
<filter id="filter0_d_1131_17910" x="0.5" y="0.5" width="112" height="112" filterUnits="userSpaceOnUse" color-interpolation-filters="sRGB">
<feFlood flood-opacity="0" result="BackgroundImageFix"/>
<feColorMatrix in="SourceAlpha" type="matrix" values="0 0 0 0 0 0 0 0 0 0 0 0 0 0 0 0 0 0 127 0" result="hardAlpha"/>
<feOffset/>
<feGaussianBlur stdDeviation="10.5"/>
<feComposite in2="hardAlpha" operator="out"/>
<feColorMatrix type="matrix" values="0 0 0 0 0 0 0 0 0 0 0 0 0 0 0 0 0 0 0.11 0"/>
<feBlend mode="normal" in2="BackgroundImageFix" result="effect1_dropShadow_1131_17910"/>
<feBlend mode="normal" in="SourceGraphic" in2="effect1_dropShadow_1131_17910" result="shape"/>
</filter>
</defs>
</svg>
