<svg width="20" height="20" viewBox="0 0 20 20" fill="none" xmlns="http://www.w3.org/2000/svg">
<rect x="1" y="1" width="18" height="18" rx="3" fill="#65BC54"/>
<rect x="1" y="1" width="18" height="18" rx="3" stroke="white" stroke-width="2"/>
<path d="M14.7005 5.27325C13.4539 4.01992 11.7939 3.33325 10.0272 3.33325C6.38719 3.33325 3.42052 6.29992 3.42052 9.93992C3.42052 11.1066 3.72719 12.2399 4.30052 13.2399L3.36719 16.6666L6.86719 15.7466C7.83385 16.2733 8.92052 16.5533 10.0272 16.5533C13.6672 16.5533 16.6339 13.5866 16.6339 9.94659C16.6339 8.17992 15.9472 6.51992 14.7005 5.27325ZM10.0272 15.4333C9.04052 15.4333 8.07385 15.1666 7.22719 14.6666L7.02719 14.5466L4.94719 15.0933L5.50052 13.0666L5.36719 12.8599C4.82052 11.9866 4.52719 10.9733 4.52719 9.93992C4.52719 6.91325 6.99385 4.44659 10.0205 4.44659C11.4872 4.44659 12.8672 5.01992 13.9005 6.05992C14.9405 7.09992 15.5072 8.47992 15.5072 9.94659C15.5205 12.9733 13.0539 15.4333 10.0272 15.4333ZM13.0405 11.3266C12.8739 11.2466 12.0605 10.8466 11.9139 10.7866C11.7605 10.7333 11.6539 10.7066 11.5405 10.8666C11.4272 11.0333 11.1139 11.4066 11.0205 11.5133C10.9272 11.6266 10.8272 11.6399 10.6605 11.5533C10.4939 11.4733 9.96052 11.2933 9.33385 10.7333C8.84052 10.2933 8.51385 9.75325 8.41385 9.58659C8.32052 9.41992 8.40052 9.33325 8.48719 9.24659C8.56052 9.17325 8.65385 9.05325 8.73385 8.95992C8.81385 8.86659 8.84719 8.79325 8.90052 8.68659C8.95385 8.57325 8.92719 8.47992 8.88719 8.39992C8.84719 8.31992 8.51385 7.50659 8.38052 7.17325C8.24719 6.85325 8.10719 6.89325 8.00719 6.88659C7.90719 6.88659 7.80052 6.88659 7.68719 6.88659C7.57385 6.88659 7.40052 6.92659 7.24719 7.09325C7.10052 7.25992 6.67385 7.65992 6.67385 8.47325C6.67385 9.28659 7.26719 10.0733 7.34719 10.1799C7.42719 10.2933 8.51385 11.9599 10.1672 12.6733C10.5605 12.8466 10.8672 12.9466 11.1072 13.0199C11.5005 13.1466 11.8605 13.1266 12.1472 13.0866C12.4672 13.0399 13.1272 12.6866 13.2605 12.2999C13.4005 11.9133 13.4005 11.5866 13.3539 11.5133C13.3072 11.4399 13.2072 11.4066 13.0405 11.3266Z" fill="white"/>
</svg>
