<svg width="18" height="18" viewBox="0 0 18 18" fill="none" xmlns="http://www.w3.org/2000/svg">
<path d="M12.442 11.0667H11.7178L11.4611 10.8192C12.3595 9.77423 12.9003 8.41757 12.9003 6.94173C12.9003 3.6509 10.2328 0.983398 6.94198 0.983398C3.65114 0.983398 0.983643 3.6509 0.983643 6.94173C0.983643 10.2326 3.65114 12.9001 6.94198 12.9001C8.41781 12.9001 9.77448 12.3592 10.8195 11.4609L11.067 11.7176V12.4417L15.6503 17.0159L17.0161 15.6501L12.442 11.0667ZM6.94198 11.0667C4.65948 11.0667 2.81698 9.22423 2.81698 6.94173C2.81698 4.65923 4.65948 2.81673 6.94198 2.81673C9.22448 2.81673 11.067 4.65923 11.067 6.94173C11.067 9.22423 9.22448 11.0667 6.94198 11.0667ZM7.40031 4.65007H6.48364V6.4834H4.65031V7.40007H6.48364V9.2334H7.40031V7.40007H9.23364V6.4834H7.40031V4.65007Z" fill="#004D71"/>
</svg>
